<?xml version="1.0" encoding="UTF-8"?>
<svg width="1200px" height="800px" viewBox="0 0 1200 800" version="1.1" xmlns="http://www.w3.org/2000/svg" xmlns:xlink="http://www.w3.org/1999/xlink">
    <title>Permutations </title>
    <g id="Permutations-" stroke="none" stroke-width="1" fill="none" fill-rule="evenodd">
        <rect id="Rectangle" fill="#1557FF" x="203" y="156" width="44" height="182" rx="22"></rect>
        <rect id="Rectangle-Copy-3" fill="#008A27" x="827" y="156" width="44" height="182" rx="22"></rect>
        <rect id="Rectangle-Copy" fill="#FF8C00" x="270" y="156" width="44" height="182" rx="22"></rect>
        <rect id="Rectangle-Copy-4" fill="#1557FF" x="894" y="156" width="44" height="182" rx="22"></rect>
        <circle id="Oval" fill="#1557FF" cx="605" cy="181" r="23"></circle>
        <circle id="Oval-Copy-3" fill="#1557FF" cx="224" cy="666" r="23"></circle>
        <circle id="Oval-Copy" fill="#008A27" cx="537" cy="315" r="23"></circle>
        <circle id="Oval-Copy-4" fill="#FF8C00" cx="293" cy="531" r="23"></circle>
        <circle id="Oval-Copy-5" fill="#008A27" cx="358" cy="599" r="23"></circle>
        <rect id="Rectangle-Copy-2" fill="#008A27" transform="translate(601.000000, 666.000000) rotate(-90.000000) translate(-601.000000, -666.000000) " x="579" y="575" width="44" height="182" rx="22"></rect>
        <rect id="Rectangle-Copy-8" fill="#1557FF" transform="translate(915.000000, 666.000000) rotate(-90.000000) translate(-915.000000, -666.000000) " x="893" y="575" width="44" height="182" rx="22"></rect>
        <rect id="Rectangle-Copy-9" fill="#008A27" transform="translate(915.000000, 599.000000) rotate(-90.000000) translate(-915.000000, -599.000000) " x="893" y="508" width="44" height="182" rx="22"></rect>
        <rect id="Rectangle-Copy-10" fill="#FF8C00" transform="translate(915.000000, 531.000000) rotate(-90.000000) translate(-915.000000, -531.000000) " x="893" y="440" width="44" height="182" rx="22"></rect>
        <rect id="Rectangle-Copy-6" fill="#FF8C00" transform="translate(601.000000, 599.000000) rotate(-90.000000) translate(-601.000000, -599.000000) " x="579" y="508" width="44" height="182" rx="22"></rect>
        <rect id="Rectangle-Copy-7" fill="#1557FF" transform="translate(601.000000, 531.000000) rotate(-90.000000) translate(-601.000000, -531.000000) " x="579" y="440" width="44" height="182" rx="22"></rect>
        <path d="M659.065009,535.0028 L659.065009,532.2308 L650.721009,532.2308 L650.721009,535.0028 L659.065009,535.0028 Z M667.297009,541.1068 L676.257009,524.0548 L676.257009,521.3668 L662.509009,521.3668 L662.509009,524.2788 L672.393009,524.2788 L663.461009,541.1068 L667.297009,541.1068 Z" id="-7" fill="#FFFFFF" fill-rule="nonzero"></path>
        <circle id="Oval-Copy-2" fill="#FF8C00" cx="670" cy="248" r="23"></circle>
        <rect id="Rectangle-Copy-2" fill="#008A27" x="336" y="156" width="44" height="182" rx="22"></rect>
        <rect id="Rectangle-Copy-5" fill="#FF8C00" x="959" y="156" width="44" height="182" rx="22"></rect>
        <g id="Group" transform="translate(476.000000, 136.000000)">
            <path d="M60.6535861,54.3588003 C62.9869194,54.3588003 64.7695861,53.4908003 66.0015861,51.7548003 C67.2335861,50.0188003 67.8495861,47.5081336 67.8495861,44.2228003 C67.8495861,40.9561336 67.2335861,38.4641336 66.0015861,36.7468003 C64.7695861,35.0294669 62.9869194,34.1708003 60.6535861,34.1708003 C58.3202527,34.1708003 56.5375861,35.0294669 55.3055861,36.7468003 C54.0735861,38.4641336 53.4575861,40.9561336 53.4575861,44.2228003 C53.4575861,47.5268003 54.0735861,50.0421336 55.3055861,51.7688003 C56.5375861,53.4954669 58.3202527,54.3588003 60.6535861,54.3588003 Z M60.6535861,51.5308003 C59.3842527,51.5308003 58.4602527,50.9474669 57.8815861,49.7808003 C57.3029194,48.6141336 57.0135861,46.7614669 57.0135861,44.2228003 C57.0135861,41.7028003 57.3029194,39.8688003 57.8815861,38.7208003 C58.4602527,37.5728003 59.3842527,36.9988003 60.6535861,36.9988003 C61.9229194,36.9988003 62.8469194,37.5728003 63.4255861,38.7208003 C64.0042527,39.8688003 64.2935861,41.7028003 64.2935861,44.2228003 C64.2935861,46.7614669 64.0042527,48.6141336 63.4255861,49.7808003 C62.8469194,50.9474669 61.9229194,51.5308003 60.6535861,51.5308003 Z" id="0" fill="#FFFFFF" fill-rule="nonzero"></path>
            <path d="M60.6438464,121.459739 C62.9771797,121.459739 64.7598464,120.591739 65.9918464,118.855739 C67.2238464,117.119739 67.8398464,114.609072 67.8398464,111.323739 C67.8398464,108.057072 67.2238464,105.565072 65.9918464,103.847739 C64.7598464,102.130406 62.9771797,101.271739 60.6438464,101.271739 C58.3105131,101.271739 56.5278464,102.130406 55.2958464,103.847739 C54.0638464,105.565072 53.4478464,108.057072 53.4478464,111.323739 C53.4478464,114.627739 54.0638464,117.143072 55.2958464,118.869739 C56.5278464,120.596406 58.3105131,121.459739 60.6438464,121.459739 Z M60.6438464,118.631739 C59.3745131,118.631739 58.4505131,118.048406 57.8718464,116.881739 C57.2931797,115.715072 57.0038464,113.862406 57.0038464,111.323739 C57.0038464,108.803739 57.2931797,106.969739 57.8718464,105.821739 C58.4505131,104.673739 59.3745131,104.099739 60.6438464,104.099739 C61.9131797,104.099739 62.8371797,104.673739 63.4158464,105.821739 C63.9945131,106.969739 64.2838464,108.803739 64.2838464,111.323739 C64.2838464,113.862406 63.9945131,115.715072 63.4158464,116.881739 C62.8371797,118.048406 61.9131797,118.631739 60.6438464,118.631739 Z" id="0" fill="#FFFFFF" fill-rule="nonzero"></path>
            <polygon id="1" fill="#FFFFFF" fill-rule="nonzero" points="67.6158464 188.308678 67.6158464 185.396678 63.3318464 185.396678 63.3318464 168.568678 60.7558464 168.568678 54.9038464 172.096678 56.3318464 174.728678 59.7198464 172.684678 59.7198464 185.396678 55.4358464 185.396678 55.4358464 188.308678"></polygon>
            <polygon id="1" fill="#FFFFFF" fill-rule="nonzero" points="136.311295 54.1068003 136.311295 51.1948003 132.027295 51.1948003 132.027295 34.3668003 129.451295 34.3668003 123.599295 37.8948003 125.027295 40.5268003 128.415295 38.4828003 128.415295 51.1948003 124.131295 51.1948003 124.131295 54.1068003"></polygon>
            <path d="M129.329556,121.459739 C131.662889,121.459739 133.445556,120.591739 134.677556,118.855739 C135.909556,117.119739 136.525556,114.609072 136.525556,111.323739 C136.525556,108.057072 135.909556,105.565072 134.677556,103.847739 C133.445556,102.130406 131.662889,101.271739 129.329556,101.271739 C126.996222,101.271739 125.213556,102.130406 123.981556,103.847739 C122.749556,105.565072 122.133556,108.057072 122.133556,111.323739 C122.133556,114.627739 122.749556,117.143072 123.981556,118.869739 C125.213556,120.596406 126.996222,121.459739 129.329556,121.459739 Z M129.329556,118.631739 C128.060222,118.631739 127.136222,118.048406 126.557556,116.881739 C125.978889,115.715072 125.689556,113.862406 125.689556,111.323739 C125.689556,108.803739 125.978889,106.969739 126.557556,105.821739 C127.136222,104.673739 128.060222,104.099739 129.329556,104.099739 C130.598889,104.099739 131.522889,104.673739 132.101556,105.821739 C132.680222,106.969739 132.969556,108.803739 132.969556,111.323739 C132.969556,113.862406 132.680222,115.715072 132.101556,116.881739 C131.522889,118.048406 130.598889,118.631739 129.329556,118.631739 Z" id="0" fill="#FFFFFF" fill-rule="nonzero"></path>
            <path d="M129.339295,188.560678 C131.672629,188.560678 133.455295,187.692678 134.687295,185.956678 C135.919295,184.220678 136.535295,181.710011 136.535295,178.424678 C136.535295,175.158011 135.919295,172.666011 134.687295,170.948678 C133.455295,169.231344 131.672629,168.372678 129.339295,168.372678 C127.005962,168.372678 125.223295,169.231344 123.991295,170.948678 C122.759295,172.666011 122.143295,175.158011 122.143295,178.424678 C122.143295,181.728678 122.759295,184.244011 123.991295,185.970678 C125.223295,187.697344 127.005962,188.560678 129.339295,188.560678 Z M129.339295,185.732678 C128.069962,185.732678 127.145962,185.149344 126.567295,183.982678 C125.988629,182.816011 125.699295,180.963344 125.699295,178.424678 C125.699295,175.904678 125.988629,174.070678 126.567295,172.922678 C127.145962,171.774678 128.069962,171.200678 129.339295,171.200678 C130.608629,171.200678 131.532629,171.774678 132.111295,172.922678 C132.689962,174.070678 132.979295,175.904678 132.979295,178.424678 C132.979295,180.963344 132.689962,182.816011 132.111295,183.982678 C131.532629,185.149344 130.608629,185.732678 129.339295,185.732678 Z" id="0" fill="#FFFFFF" fill-rule="nonzero"></path>
            <path d="M194.293009,54.3588003 C196.626343,54.3588003 198.409009,53.4908003 199.641009,51.7548003 C200.873009,50.0188003 201.489009,47.5081336 201.489009,44.2228003 C201.489009,40.9561336 200.873009,38.4641336 199.641009,36.7468003 C198.409009,35.0294669 196.626343,34.1708003 194.293009,34.1708003 C191.959676,34.1708003 190.177009,35.0294669 188.945009,36.7468003 C187.713009,38.4641336 187.097009,40.9561336 187.097009,44.2228003 C187.097009,47.5268003 187.713009,50.0421336 188.945009,51.7688003 C190.177009,53.4954669 191.959676,54.3588003 194.293009,54.3588003 Z M194.293009,51.5308003 C193.023676,51.5308003 192.099676,50.9474669 191.521009,49.7808003 C190.942343,48.6141336 190.653009,46.7614669 190.653009,44.2228003 C190.653009,41.7028003 190.942343,39.8688003 191.521009,38.7208003 C192.099676,37.5728003 193.023676,36.9988003 194.293009,36.9988003 C195.562343,36.9988003 196.486343,37.5728003 197.065009,38.7208003 C197.643676,39.8688003 197.933009,41.7028003 197.933009,44.2228003 C197.933009,46.7614669 197.643676,48.6141336 197.065009,49.7808003 C196.486343,50.9474669 195.562343,51.5308003 194.293009,51.5308003 Z" id="0" fill="#FFFFFF" fill-rule="nonzero"></path>
            <polygon id="1" fill="#FFFFFF" fill-rule="nonzero" points="201.265009 121.207739 201.265009 118.295739 196.981009 118.295739 196.981009 101.467739 194.405009 101.467739 188.553009 104.995739 189.981009 107.627739 193.369009 105.583739 193.369009 118.295739 189.085009 118.295739 189.085009 121.207739"></polygon>
            <path d="M194.025004,188.560678 C196.358338,188.560678 198.141004,187.692678 199.373004,185.956678 C200.605004,184.220678 201.221004,181.710011 201.221004,178.424678 C201.221004,175.158011 200.605004,172.666011 199.373004,170.948678 C198.141004,169.231344 196.358338,168.372678 194.025004,168.372678 C191.691671,168.372678 189.909004,169.231344 188.677004,170.948678 C187.445004,172.666011 186.829004,175.158011 186.829004,178.424678 C186.829004,181.728678 187.445004,184.244011 188.677004,185.970678 C189.909004,187.697344 191.691671,188.560678 194.025004,188.560678 Z M194.025004,185.732678 C192.755671,185.732678 191.831671,185.149344 191.253004,183.982678 C190.674338,182.816011 190.385004,180.963344 190.385004,178.424678 C190.385004,175.904678 190.674338,174.070678 191.253004,172.922678 C191.831671,171.774678 192.755671,171.200678 194.025004,171.200678 C195.294338,171.200678 196.218338,171.774678 196.797004,172.922678 C197.375671,174.070678 197.665004,175.904678 197.665004,178.424678 C197.665004,180.963344 197.375671,182.816011 196.797004,183.982678 C196.218338,185.149344 195.294338,185.732678 194.025004,185.732678 Z" id="0" fill="#FFFFFF" fill-rule="nonzero"></path>
            <polyline id="Path" stroke="#FFFFFF" stroke-width="2.1" points="28.3990439 0 0 0 0 220 28.3990439 220"></polyline>
            <polyline id="Path-Copy" stroke="#FFFFFF" stroke-width="2.1" transform="translate(238.800478, 110.000000) rotate(-180.000000) translate(-238.800478, -110.000000) " points="253 0 224.600956 0 224.600956 220 253 220"></polyline>
        </g>
        <g id="Group" transform="translate(476.000000, 487.000000)">
            <path d="M65.5255861,54.1068003 L65.5255861,50.2428003 L68.2975861,50.2428003 L68.2975861,47.4428003 L65.5255861,47.4428003 L65.5255861,34.3668003 L62.6135861,34.3668003 L53.4295861,47.5828003 L53.4295861,50.2428003 L61.9975861,50.2428003 L61.9975861,54.1068003 L65.5255861,54.1068003 Z M61.9975861,47.4428003 L56.7895861,47.4428003 L61.9975861,39.9108003 L61.9975861,47.4428003 Z" id="4" fill="#FFFFFF" fill-rule="nonzero"></path>
            <path d="M67.3234273,121 L67.3234273,118.088 L58.5594273,118.088 L63.4034273,112.936 C64.5607606,111.704 65.382094,110.588667 65.8674273,109.59 C66.3527606,108.591333 66.5954273,107.522667 66.5954273,106.384 C66.5954273,104.741333 66.0167606,103.434667 64.8594273,102.464 C63.702094,101.493333 62.134094,101.008 60.1554273,101.008 C58.9234273,101.008 57.696094,101.218 56.4734273,101.638 C55.2507606,102.058 54.2474273,102.613333 53.4634273,103.304 L53.4634273,103.304 L54.6674273,105.936 C56.4594273,104.573333 58.242094,103.892 60.0154273,103.892 C61.0047606,103.892 61.756094,104.120667 62.2694273,104.578 C62.7827606,105.035333 63.0394273,105.712 63.0394273,106.608 C63.0394273,107.317333 62.8574273,108.031333 62.4934273,108.75 C62.1294273,109.468667 61.5554273,110.257333 60.7714273,111.116 L60.7714273,111.116 L54.0514273,118.34 L54.0514273,121 L67.3234273,121 Z" id="2" fill="#FFFFFF" fill-rule="nonzero"></path>
            <path d="M59.2158464,188.308678 L59.2158464,185.396678 L54.9318464,185.396678 L54.9318464,168.568678 L52.3558464,168.568678 L46.5038464,172.096678 L47.9318464,174.728678 L51.3198464,172.684678 L51.3198464,185.396678 L47.0358464,185.396678 L47.0358464,188.308678 L59.2158464,188.308678 Z M76.0158464,188.308678 L76.0158464,185.396678 L71.7318464,185.396678 L71.7318464,168.568678 L69.1558464,168.568678 L63.3038464,172.096678 L64.7318464,174.728678 L68.1198464,172.684678 L68.1198464,185.396678 L63.8358464,185.396678 L63.8358464,188.308678 L76.0158464,188.308678 Z" id="11" fill="#FFFFFF" fill-rule="nonzero"></path>
            <path d="M128.325432,54.224 C130.490765,54.224 132.203432,53.7246667 133.463432,52.726 C134.723432,51.7273333 135.353432,50.3693333 135.353432,48.652 C135.353432,47.42 135.040765,46.3886667 134.415432,45.558 C133.790099,44.7273333 132.898765,44.1626667 131.741432,43.864 C132.712099,43.5093333 133.472765,42.926 134.023432,42.114 C134.574099,41.302 134.858765,40.3453333 134.877432,39.244 C134.877432,37.6386667 134.298765,36.3646667 133.141432,35.422 C131.984099,34.4793333 130.434765,34.008 128.493432,34.008 C127.224099,34.008 125.978099,34.2133333 124.755432,34.624 C123.532765,35.0346667 122.529432,35.5946667 121.745432,36.304 L121.745432,36.304 L122.949432,38.936 C123.808099,38.264 124.690099,37.7553333 125.595432,37.41 C126.500765,37.0646667 127.392099,36.892 128.269432,36.892 C129.277432,36.892 130.056765,37.1346667 130.607432,37.62 C131.158099,38.1053333 131.433432,38.796 131.433432,39.692 C131.433432,41.6146667 130.154765,42.576 127.597432,42.576 L127.597432,42.576 L125.469432,42.576 L125.469432,45.432 L128.073432,45.432 C129.380099,45.432 130.346099,45.67 130.971432,46.146 C131.596765,46.622 131.909432,47.3546667 131.909432,48.344 C131.909432,49.352 131.601432,50.1033333 130.985432,50.598 C130.369432,51.0926667 129.436099,51.34 128.185432,51.34 C126.225432,51.34 124.386765,50.6586667 122.669432,49.296 L122.669432,49.296 L121.465432,51.928 C122.268099,52.6373333 123.280765,53.1973333 124.503432,53.608 C125.726099,54.0186667 127.000099,54.224 128.325432,54.224 Z" id="3" fill="#FFFFFF" fill-rule="nonzero"></path>
            <path d="M124.193427,114.896 L124.193427,112.124 L115.849427,112.124 L115.849427,114.896 L124.193427,114.896 Z M134.497427,121.224 C135.972094,121.224 137.255427,120.953333 138.347427,120.412 C139.439427,119.870667 140.284094,119.105333 140.881427,118.116 C141.478761,117.126667 141.777427,115.978667 141.777427,114.672 C141.777427,113.44 141.520761,112.348 141.007427,111.396 C140.494094,110.444 139.766094,109.702 138.823427,109.17 C137.880761,108.638 136.793427,108.372 135.561427,108.372 C134.161427,108.372 132.985427,108.708 132.033427,109.38 L132.033427,109.38 L132.033427,104.06 L140.881427,104.06 L140.881427,101.26 L128.505427,101.26 L128.505427,112.88 L130.661427,112.88 C131.202761,112.338667 131.814094,111.923333 132.495427,111.634 C133.176761,111.344667 133.900094,111.2 134.665427,111.2 C135.804094,111.2 136.704761,111.522 137.367427,112.166 C138.030094,112.81 138.361427,113.682667 138.361427,114.784 C138.361427,115.922667 138.034761,116.8 137.381427,117.416 C136.728094,118.032 135.785427,118.34 134.553427,118.34 C132.686761,118.34 130.857427,117.658667 129.065427,116.296 L129.065427,116.296 L127.861427,118.928 C128.645427,119.618667 129.639427,120.174 130.843427,120.594 C132.047427,121.014 133.265427,121.224 134.497427,121.224 Z" id="-5" fill="#FFFFFF" fill-rule="nonzero"></path>
            <path d="M124.193427,181.896 L124.193427,179.124 L115.849427,179.124 L115.849427,181.896 L124.193427,181.896 Z M139.369427,188 L139.369427,184.136 L142.141427,184.136 L142.141427,181.336 L139.369427,181.336 L139.369427,168.26 L136.457427,168.26 L127.273427,181.476 L127.273427,184.136 L135.841427,184.136 L135.841427,188 L139.369427,188 Z M135.841427,181.336 L130.633427,181.336 L135.841427,173.804 L135.841427,181.336 Z" id="-4" fill="#FFFFFF" fill-rule="nonzero"></path>
            <polygon id="1" fill="#FFFFFF" fill-rule="nonzero" points="201.393427 121 201.393427 118.088 197.109427 118.088 197.109427 101.26 194.533427 101.26 188.681427 104.788 190.109427 107.42 193.497427 105.376 193.497427 118.088 189.213427 118.088 189.213427 121"></polygon>
            <path d="M194.669004,188.560678 C195.938338,188.560678 197.077004,188.280678 198.085004,187.720678 C199.093004,187.160678 199.877004,186.381344 200.437004,185.382678 C200.997004,184.384011 201.277004,183.250011 201.277004,181.980678 C201.277004,180.748678 201.020338,179.652011 200.507004,178.690678 C199.993671,177.729344 199.279671,176.982678 198.365004,176.450678 C197.450338,175.918678 196.414338,175.652678 195.257004,175.652678 C194.193004,175.652678 193.231671,175.890678 192.373004,176.366678 C191.514338,176.842678 190.870338,177.500678 190.441004,178.340678 C190.478338,176.026011 190.898338,174.257344 191.701004,173.034678 C192.503671,171.812011 193.623671,171.200678 195.061004,171.200678 C196.666338,171.200678 198.337004,171.882011 200.073004,173.244678 L200.073004,173.244678 L201.277004,170.612678 C200.455671,169.884678 199.485004,169.320011 198.365004,168.918678 C197.245004,168.517344 196.097004,168.316678 194.921004,168.316678 C193.259671,168.316678 191.822338,168.732011 190.609004,169.562678 C189.395671,170.393344 188.467004,171.597344 187.823004,173.174678 C187.179004,174.752011 186.857004,176.623344 186.857004,178.788678 C186.857004,181.924678 187.533671,184.337344 188.887004,186.026678 C190.240338,187.716011 192.167671,188.560678 194.669004,188.560678 Z M194.501004,185.704678 C193.455671,185.704678 192.611004,185.373344 191.967004,184.710678 C191.323004,184.048011 191.001004,183.175344 191.001004,182.092678 C191.001004,181.028678 191.323004,180.165344 191.967004,179.502678 C192.611004,178.840011 193.446338,178.508678 194.473004,178.508678 C195.499671,178.508678 196.321004,178.835344 196.937004,179.488678 C197.553004,180.142011 197.861004,181.010011 197.861004,182.092678 C197.861004,183.194011 197.557671,184.071344 196.951004,184.724678 C196.344338,185.378011 195.527671,185.704678 194.501004,185.704678 Z" id="6" fill="#FFFFFF" fill-rule="nonzero"></path>
            <polyline id="Path" stroke="#FFFFFF" stroke-width="2.1" points="28.3990439 0 0 0 0 220 28.3990439 220"></polyline>
            <polyline id="Path-Copy" stroke="#FFFFFF" stroke-width="2.1" transform="translate(237.800478, 110.000000) rotate(-180.000000) translate(-237.800478, -110.000000) " points="252 0 223.600956 0 223.600956 220 252 220"></polyline>
        </g>
        <g id="Group-2-Copy-7" transform="translate(164.000000, 136.000000)">
            <g id="Group" transform="translate(0.000000, 0.000000)">
                <path d="M65.5255861,54.1068003 L65.5255861,50.2428003 L68.2975861,50.2428003 L68.2975861,47.4428003 L65.5255861,47.4428003 L65.5255861,34.3668003 L62.6135861,34.3668003 L53.4295861,47.5828003 L53.4295861,50.2428003 L61.9975861,50.2428003 L61.9975861,54.1068003 L65.5255861,54.1068003 Z M61.9975861,47.4428003 L56.7895861,47.4428003 L61.9975861,39.9108003 L61.9975861,47.4428003 Z" id="4" fill="#FFFFFF" fill-rule="nonzero"></path>
                <path d="M67.5458464,121.207739 L67.5458464,118.295739 L58.7818464,118.295739 L63.6258464,113.143739 C64.7831797,111.911739 65.6045131,110.796406 66.0898464,109.797739 C66.5751797,108.799072 66.8178464,107.730406 66.8178464,106.591739 C66.8178464,104.949072 66.2391797,103.642406 65.0818464,102.671739 C63.9245131,101.701072 62.3565131,101.215739 60.3778464,101.215739 C59.1458464,101.215739 57.9185131,101.425739 56.6958464,101.845739 C55.4731797,102.265739 54.4698464,102.821072 53.6858464,103.511739 L53.6858464,103.511739 L54.8898464,106.143739 C56.6818464,104.781072 58.4645131,104.099739 60.2378464,104.099739 C61.2271797,104.099739 61.9785131,104.328406 62.4918464,104.785739 C63.0051797,105.243072 63.2618464,105.919739 63.2618464,106.815739 C63.2618464,107.525072 63.0798464,108.239072 62.7158464,108.957739 C62.3518464,109.676406 61.7778464,110.465072 60.9938464,111.323739 L60.9938464,111.323739 L54.2738464,118.547739 L54.2738464,121.207739 L67.5458464,121.207739 Z" id="2" fill="#FFFFFF" fill-rule="nonzero"></path>
                <path d="M59.2158464,188.308678 L59.2158464,185.396678 L54.9318464,185.396678 L54.9318464,168.568678 L52.3558464,168.568678 L46.5038464,172.096678 L47.9318464,174.728678 L51.3198464,172.684678 L51.3198464,185.396678 L47.0358464,185.396678 L47.0358464,188.308678 L59.2158464,188.308678 Z M76.0158464,188.308678 L76.0158464,185.396678 L71.7318464,185.396678 L71.7318464,168.568678 L69.1558464,168.568678 L63.3038464,172.096678 L64.7318464,174.728678 L68.1198464,172.684678 L68.1198464,185.396678 L63.8358464,185.396678 L63.8358464,188.308678 L76.0158464,188.308678 Z" id="11" fill="#FFFFFF" fill-rule="nonzero"></path>
                <path d="M128.975295,54.3308003 C131.140629,54.3308003 132.853295,53.8314669 134.113295,52.8328003 C135.373295,51.8341336 136.003295,50.4761336 136.003295,48.7588003 C136.003295,47.5268003 135.690629,46.4954669 135.065295,45.6648003 C134.439962,44.8341336 133.548629,44.2694669 132.391295,43.9708003 C133.361962,43.6161336 134.122629,43.0328003 134.673295,42.2208003 C135.223962,41.4088003 135.508629,40.4521336 135.527295,39.3508003 C135.527295,37.7454669 134.948629,36.4714669 133.791295,35.5288003 C132.633962,34.5861336 131.084629,34.1148003 129.143295,34.1148003 C127.873962,34.1148003 126.627962,34.3201336 125.405295,34.7308003 C124.182629,35.1414669 123.179295,35.7014669 122.395295,36.4108003 L122.395295,36.4108003 L123.599295,39.0428003 C124.457962,38.3708003 125.339962,37.8621336 126.245295,37.5168003 C127.150629,37.1714669 128.041962,36.9988003 128.919295,36.9988003 C129.927295,36.9988003 130.706629,37.2414669 131.257295,37.7268003 C131.807962,38.2121336 132.083295,38.9028003 132.083295,39.7988003 C132.083295,41.7214669 130.804629,42.6828003 128.247295,42.6828003 L128.247295,42.6828003 L126.119295,42.6828003 L126.119295,45.5388003 L128.723295,45.5388003 C130.029962,45.5388003 130.995962,45.7768003 131.621295,46.2528003 C132.246629,46.7288003 132.559295,47.4614669 132.559295,48.4508003 C132.559295,49.4588003 132.251295,50.2101336 131.635295,50.7048003 C131.019295,51.1994669 130.085962,51.4468003 128.835295,51.4468003 C126.875295,51.4468003 125.036629,50.7654669 123.319295,49.4028003 L123.319295,49.4028003 L122.115295,52.0348003 C122.917962,52.7441336 123.930629,53.3041336 125.153295,53.7148003 C126.375962,54.1254669 127.649962,54.3308003 128.975295,54.3308003 Z" id="3" fill="#FFFFFF" fill-rule="nonzero"></path>
                <path d="M125.101556,115.103739 L125.101556,112.331739 L116.757556,112.331739 L116.757556,115.103739 L125.101556,115.103739 Z M135.405556,121.431739 C136.880222,121.431739 138.163556,121.161072 139.255556,120.619739 C140.347556,120.078406 141.192222,119.313072 141.789556,118.323739 C142.386889,117.334406 142.685556,116.186406 142.685556,114.879739 C142.685556,113.647739 142.428889,112.555739 141.915556,111.603739 C141.402222,110.651739 140.674222,109.909739 139.731556,109.377739 C138.788889,108.845739 137.701556,108.579739 136.469556,108.579739 C135.069556,108.579739 133.893556,108.915739 132.941556,109.587739 L132.941556,109.587739 L132.941556,104.267739 L141.789556,104.267739 L141.789556,101.467739 L129.413556,101.467739 L129.413556,113.087739 L131.569556,113.087739 C132.110889,112.546406 132.722222,112.131072 133.403556,111.841739 C134.084889,111.552406 134.808222,111.407739 135.573556,111.407739 C136.712222,111.407739 137.612889,111.729739 138.275556,112.373739 C138.938222,113.017739 139.269556,113.890406 139.269556,114.991739 C139.269556,116.130406 138.942889,117.007739 138.289556,117.623739 C137.636222,118.239739 136.693556,118.547739 135.461556,118.547739 C133.594889,118.547739 131.765556,117.866406 129.973556,116.503739 L129.973556,116.503739 L128.769556,119.135739 C129.553556,119.826406 130.547556,120.381739 131.751556,120.801739 C132.955556,121.221739 134.173556,121.431739 135.405556,121.431739 Z" id="-5" fill="#FFFFFF" fill-rule="nonzero"></path>
                <path d="M125.111295,182.204678 L125.111295,179.432678 L116.767295,179.432678 L116.767295,182.204678 L125.111295,182.204678 Z M140.287295,188.308678 L140.287295,184.444678 L143.059295,184.444678 L143.059295,181.644678 L140.287295,181.644678 L140.287295,168.568678 L137.375295,168.568678 L128.191295,181.784678 L128.191295,184.444678 L136.759295,184.444678 L136.759295,188.308678 L140.287295,188.308678 Z M136.759295,181.644678 L131.551295,181.644678 L136.759295,174.112678 L136.759295,181.644678 Z" id="-4" fill="#FFFFFF" fill-rule="nonzero"></path>
                <path d="M190.193427,47.896 L190.193427,45.124 L181.849427,45.124 L181.849427,47.896 L190.193427,47.896 Z M198.425427,54 L207.385427,36.948 L207.385427,34.26 L193.637427,34.26 L193.637427,37.172 L203.521427,37.172 L194.589427,54 L198.425427,54 Z" id="-7" fill="#FFFFFF" fill-rule="nonzero"></path>
                <polygon id="1" fill="#FFFFFF" fill-rule="nonzero" points="201.393427 121 201.393427 118.088 197.109427 118.088 197.109427 101.26 194.533427 101.26 188.681427 104.788 190.109427 107.42 193.497427 105.376 193.497427 118.088 189.213427 118.088 189.213427 121"></polygon>
                <path d="M195.333432,188.252 C196.602765,188.252 197.741432,187.972 198.749432,187.412 C199.757432,186.852 200.541432,186.072667 201.101432,185.074 C201.661432,184.075333 201.941432,182.941333 201.941432,181.672 C201.941432,180.44 201.684765,179.343333 201.171432,178.382 C200.658099,177.420667 199.944099,176.674 199.029432,176.142 C198.114765,175.61 197.078765,175.344 195.921432,175.344 C194.857432,175.344 193.896099,175.582 193.037432,176.058 C192.178765,176.534 191.534765,177.192 191.105432,178.032 C191.142765,175.717333 191.562765,173.948667 192.365432,172.726 C193.168099,171.503333 194.288099,170.892 195.725432,170.892 C197.330765,170.892 199.001432,171.573333 200.737432,172.936 L200.737432,172.936 L201.941432,170.304 C201.120099,169.576 200.149432,169.011333 199.029432,168.61 C197.909432,168.208667 196.761432,168.008 195.585432,168.008 C193.924099,168.008 192.486765,168.423333 191.273432,169.254 C190.060099,170.084667 189.131432,171.288667 188.487432,172.866 C187.843432,174.443333 187.521432,176.314667 187.521432,178.48 C187.521432,181.616 188.198099,184.028667 189.551432,185.718 C190.904765,187.407333 192.832099,188.252 195.333432,188.252 Z M195.165432,185.396 C194.120099,185.396 193.275432,185.064667 192.631432,184.402 C191.987432,183.739333 191.665432,182.866667 191.665432,181.784 C191.665432,180.72 191.987432,179.856667 192.631432,179.194 C193.275432,178.531333 194.110765,178.2 195.137432,178.2 C196.164099,178.2 196.985432,178.526667 197.601432,179.18 C198.217432,179.833333 198.525432,180.701333 198.525432,181.784 C198.525432,182.885333 198.222099,183.762667 197.615432,184.416 C197.008765,185.069333 196.192099,185.396 195.165432,185.396 Z" id="6" fill="#FFFFFF" fill-rule="nonzero"></path>
                <polyline id="Path" stroke="#FFFFFF" stroke-width="2.1" points="28.3990439 0 0 0 0 220 28.3990439 220"></polyline>
                <polyline id="Path-Copy" stroke="#FFFFFF" stroke-width="2.1" transform="translate(238.800478, 110.000000) rotate(-180.000000) translate(-238.800478, -110.000000) " points="253 0 224.600956 0 224.600956 220 253 220"></polyline>
            </g>
        </g>
        <g id="Group-2-Copy-10" transform="translate(164.000000, 487.000000)">
            <g id="Group" transform="translate(0.000000, 0.000000)">
                <path d="M60.6535861,54.3588003 C62.9869194,54.3588003 64.7695861,53.4908003 66.0015861,51.7548003 C67.2335861,50.0188003 67.8495861,47.5081336 67.8495861,44.2228003 C67.8495861,40.9561336 67.2335861,38.4641336 66.0015861,36.7468003 C64.7695861,35.0294669 62.9869194,34.1708003 60.6535861,34.1708003 C58.3202527,34.1708003 56.5375861,35.0294669 55.3055861,36.7468003 C54.0735861,38.4641336 53.4575861,40.9561336 53.4575861,44.2228003 C53.4575861,47.5268003 54.0735861,50.0421336 55.3055861,51.7688003 C56.5375861,53.4954669 58.3202527,54.3588003 60.6535861,54.3588003 Z M60.6535861,51.5308003 C59.3842527,51.5308003 58.4602527,50.9474669 57.8815861,49.7808003 C57.3029194,48.6141336 57.0135861,46.7614669 57.0135861,44.2228003 C57.0135861,41.7028003 57.3029194,39.8688003 57.8815861,38.7208003 C58.4602527,37.5728003 59.3842527,36.9988003 60.6535861,36.9988003 C61.9229194,36.9988003 62.8469194,37.5728003 63.4255861,38.7208003 C64.0042527,39.8688003 64.2935861,41.7028003 64.2935861,44.2228003 C64.2935861,46.7614669 64.0042527,48.6141336 63.4255861,49.7808003 C62.8469194,50.9474669 61.9229194,51.5308003 60.6535861,51.5308003 Z" id="0" fill="#FFFFFF" fill-rule="nonzero"></path>
                <path d="M60.6438464,121.459739 C62.9771797,121.459739 64.7598464,120.591739 65.9918464,118.855739 C67.2238464,117.119739 67.8398464,114.609072 67.8398464,111.323739 C67.8398464,108.057072 67.2238464,105.565072 65.9918464,103.847739 C64.7598464,102.130406 62.9771797,101.271739 60.6438464,101.271739 C58.3105131,101.271739 56.5278464,102.130406 55.2958464,103.847739 C54.0638464,105.565072 53.4478464,108.057072 53.4478464,111.323739 C53.4478464,114.627739 54.0638464,117.143072 55.2958464,118.869739 C56.5278464,120.596406 58.3105131,121.459739 60.6438464,121.459739 Z M60.6438464,118.631739 C59.3745131,118.631739 58.4505131,118.048406 57.8718464,116.881739 C57.2931797,115.715072 57.0038464,113.862406 57.0038464,111.323739 C57.0038464,108.803739 57.2931797,106.969739 57.8718464,105.821739 C58.4505131,104.673739 59.3745131,104.099739 60.6438464,104.099739 C61.9131797,104.099739 62.8371797,104.673739 63.4158464,105.821739 C63.9945131,106.969739 64.2838464,108.803739 64.2838464,111.323739 C64.2838464,113.862406 63.9945131,115.715072 63.4158464,116.881739 C62.8371797,118.048406 61.9131797,118.631739 60.6438464,118.631739 Z" id="0" fill="#FFFFFF" fill-rule="nonzero"></path>
                <polygon id="1" fill="#FFFFFF" fill-rule="nonzero" points="67.6158464 188.308678 67.6158464 185.396678 63.3318464 185.396678 63.3318464 168.568678 60.7558464 168.568678 54.9038464 172.096678 56.3318464 174.728678 59.7198464 172.684678 59.7198464 185.396678 55.4358464 185.396678 55.4358464 188.308678"></polygon>
                <polygon id="1" fill="#FFFFFF" fill-rule="nonzero" points="136.311295 54.1068003 136.311295 51.1948003 132.027295 51.1948003 132.027295 34.3668003 129.451295 34.3668003 123.599295 37.8948003 125.027295 40.5268003 128.415295 38.4828003 128.415295 51.1948003 124.131295 51.1948003 124.131295 54.1068003"></polygon>
                <path d="M129.329556,121.459739 C131.662889,121.459739 133.445556,120.591739 134.677556,118.855739 C135.909556,117.119739 136.525556,114.609072 136.525556,111.323739 C136.525556,108.057072 135.909556,105.565072 134.677556,103.847739 C133.445556,102.130406 131.662889,101.271739 129.329556,101.271739 C126.996222,101.271739 125.213556,102.130406 123.981556,103.847739 C122.749556,105.565072 122.133556,108.057072 122.133556,111.323739 C122.133556,114.627739 122.749556,117.143072 123.981556,118.869739 C125.213556,120.596406 126.996222,121.459739 129.329556,121.459739 Z M129.329556,118.631739 C128.060222,118.631739 127.136222,118.048406 126.557556,116.881739 C125.978889,115.715072 125.689556,113.862406 125.689556,111.323739 C125.689556,108.803739 125.978889,106.969739 126.557556,105.821739 C127.136222,104.673739 128.060222,104.099739 129.329556,104.099739 C130.598889,104.099739 131.522889,104.673739 132.101556,105.821739 C132.680222,106.969739 132.969556,108.803739 132.969556,111.323739 C132.969556,113.862406 132.680222,115.715072 132.101556,116.881739 C131.522889,118.048406 130.598889,118.631739 129.329556,118.631739 Z" id="0" fill="#FFFFFF" fill-rule="nonzero"></path>
                <path d="M129.339295,188.560678 C131.672629,188.560678 133.455295,187.692678 134.687295,185.956678 C135.919295,184.220678 136.535295,181.710011 136.535295,178.424678 C136.535295,175.158011 135.919295,172.666011 134.687295,170.948678 C133.455295,169.231344 131.672629,168.372678 129.339295,168.372678 C127.005962,168.372678 125.223295,169.231344 123.991295,170.948678 C122.759295,172.666011 122.143295,175.158011 122.143295,178.424678 C122.143295,181.728678 122.759295,184.244011 123.991295,185.970678 C125.223295,187.697344 127.005962,188.560678 129.339295,188.560678 Z M129.339295,185.732678 C128.069962,185.732678 127.145962,185.149344 126.567295,183.982678 C125.988629,182.816011 125.699295,180.963344 125.699295,178.424678 C125.699295,175.904678 125.988629,174.070678 126.567295,172.922678 C127.145962,171.774678 128.069962,171.200678 129.339295,171.200678 C130.608629,171.200678 131.532629,171.774678 132.111295,172.922678 C132.689962,174.070678 132.979295,175.904678 132.979295,178.424678 C132.979295,180.963344 132.689962,182.816011 132.111295,183.982678 C131.532629,185.149344 130.608629,185.732678 129.339295,185.732678 Z" id="0" fill="#FFFFFF" fill-rule="nonzero"></path>
                <path d="M194.293009,54.3588003 C196.626343,54.3588003 198.409009,53.4908003 199.641009,51.7548003 C200.873009,50.0188003 201.489009,47.5081336 201.489009,44.2228003 C201.489009,40.9561336 200.873009,38.4641336 199.641009,36.7468003 C198.409009,35.0294669 196.626343,34.1708003 194.293009,34.1708003 C191.959676,34.1708003 190.177009,35.0294669 188.945009,36.7468003 C187.713009,38.4641336 187.097009,40.9561336 187.097009,44.2228003 C187.097009,47.5268003 187.713009,50.0421336 188.945009,51.7688003 C190.177009,53.4954669 191.959676,54.3588003 194.293009,54.3588003 Z M194.293009,51.5308003 C193.023676,51.5308003 192.099676,50.9474669 191.521009,49.7808003 C190.942343,48.6141336 190.653009,46.7614669 190.653009,44.2228003 C190.653009,41.7028003 190.942343,39.8688003 191.521009,38.7208003 C192.099676,37.5728003 193.023676,36.9988003 194.293009,36.9988003 C195.562343,36.9988003 196.486343,37.5728003 197.065009,38.7208003 C197.643676,39.8688003 197.933009,41.7028003 197.933009,44.2228003 C197.933009,46.7614669 197.643676,48.6141336 197.065009,49.7808003 C196.486343,50.9474669 195.562343,51.5308003 194.293009,51.5308003 Z" id="0" fill="#FFFFFF" fill-rule="nonzero"></path>
                <polygon id="1" fill="#FFFFFF" fill-rule="nonzero" points="201.265009 121.207739 201.265009 118.295739 196.981009 118.295739 196.981009 101.467739 194.405009 101.467739 188.553009 104.995739 189.981009 107.627739 193.369009 105.583739 193.369009 118.295739 189.085009 118.295739 189.085009 121.207739"></polygon>
                <path d="M194.025004,188.560678 C196.358338,188.560678 198.141004,187.692678 199.373004,185.956678 C200.605004,184.220678 201.221004,181.710011 201.221004,178.424678 C201.221004,175.158011 200.605004,172.666011 199.373004,170.948678 C198.141004,169.231344 196.358338,168.372678 194.025004,168.372678 C191.691671,168.372678 189.909004,169.231344 188.677004,170.948678 C187.445004,172.666011 186.829004,175.158011 186.829004,178.424678 C186.829004,181.728678 187.445004,184.244011 188.677004,185.970678 C189.909004,187.697344 191.691671,188.560678 194.025004,188.560678 Z M194.025004,185.732678 C192.755671,185.732678 191.831671,185.149344 191.253004,183.982678 C190.674338,182.816011 190.385004,180.963344 190.385004,178.424678 C190.385004,175.904678 190.674338,174.070678 191.253004,172.922678 C191.831671,171.774678 192.755671,171.200678 194.025004,171.200678 C195.294338,171.200678 196.218338,171.774678 196.797004,172.922678 C197.375671,174.070678 197.665004,175.904678 197.665004,178.424678 C197.665004,180.963344 197.375671,182.816011 196.797004,183.982678 C196.218338,185.149344 195.294338,185.732678 194.025004,185.732678 Z" id="0" fill="#FFFFFF" fill-rule="nonzero"></path>
                <polyline id="Path" stroke="#FFFFFF" stroke-width="2.1" points="28.3990439 0 0 0 0 220 28.3990439 220"></polyline>
                <polyline id="Path-Copy" stroke="#FFFFFF" stroke-width="2.1" transform="translate(238.800478, 110.000000) rotate(-180.000000) translate(-238.800478, -110.000000) " points="253 0 224.600956 0 224.600956 220 253 220"></polyline>
            </g>
        </g>
        <g id="Group" transform="translate(788.000000, 136.000000)">
            <path d="M56.4255861,48.0028003 L56.4255861,45.2308003 L48.0815861,45.2308003 L48.0815861,48.0028003 L56.4255861,48.0028003 Z M64.6575861,54.1068003 L73.6175861,37.0548003 L73.6175861,34.3668003 L59.8695861,34.3668003 L59.8695861,37.2788003 L69.7535861,37.2788003 L60.8215861,54.1068003 L64.6575861,54.1068003 Z" id="-7" fill="#FFFFFF" fill-rule="nonzero"></path>
            <polygon id="1" fill="#FFFFFF" fill-rule="nonzero" points="67.6158464 121.207739 67.6158464 118.295739 63.3318464 118.295739 63.3318464 101.467739 60.7558464 101.467739 54.9038464 104.995739 56.3318464 107.627739 59.7198464 105.583739 59.7198464 118.295739 55.4358464 118.295739 55.4358464 121.207739"></polygon>
            <path d="M61.2878464,188.560678 C62.5571797,188.560678 63.6958464,188.280678 64.7038464,187.720678 C65.7118464,187.160678 66.4958464,186.381344 67.0558464,185.382678 C67.6158464,184.384011 67.8958464,183.250011 67.8958464,181.980678 C67.8958464,180.748678 67.6391797,179.652011 67.1258464,178.690678 C66.6125131,177.729344 65.8985131,176.982678 64.9838464,176.450678 C64.0691797,175.918678 63.0331797,175.652678 61.8758464,175.652678 C60.8118464,175.652678 59.8505131,175.890678 58.9918464,176.366678 C58.1331797,176.842678 57.4891797,177.500678 57.0598464,178.340678 C57.0971797,176.026011 57.5171797,174.257344 58.3198464,173.034678 C59.1225131,171.812011 60.2425131,171.200678 61.6798464,171.200678 C63.2851797,171.200678 64.9558464,171.882011 66.6918464,173.244678 L66.6918464,173.244678 L67.8958464,170.612678 C67.0745131,169.884678 66.1038464,169.320011 64.9838464,168.918678 C63.8638464,168.517344 62.7158464,168.316678 61.5398464,168.316678 C59.8785131,168.316678 58.4411797,168.732011 57.2278464,169.562678 C56.0145131,170.393344 55.0858464,171.597344 54.4418464,173.174678 C53.7978464,174.752011 53.4758464,176.623344 53.4758464,178.788678 C53.4758464,181.924678 54.1525131,184.337344 55.5058464,186.026678 C56.8591797,187.716011 58.7865131,188.560678 61.2878464,188.560678 Z M61.1198464,185.704678 C60.0745131,185.704678 59.2298464,185.373344 58.5858464,184.710678 C57.9418464,184.048011 57.6198464,183.175344 57.6198464,182.092678 C57.6198464,181.028678 57.9418464,180.165344 58.5858464,179.502678 C59.2298464,178.840011 60.0651797,178.508678 61.0918464,178.508678 C62.1185131,178.508678 62.9398464,178.835344 63.5558464,179.488678 C64.1718464,180.142011 64.4798464,181.010011 64.4798464,182.092678 C64.4798464,183.194011 64.1765131,184.071344 63.5698464,184.724678 C62.9631797,185.378011 62.1465131,185.704678 61.1198464,185.704678 Z" id="6" fill="#FFFFFF" fill-rule="nonzero"></path>
            <path d="M134.211295,54.1068003 L134.211295,50.2428003 L136.983295,50.2428003 L136.983295,47.4428003 L134.211295,47.4428003 L134.211295,34.3668003 L131.299295,34.3668003 L122.115295,47.5828003 L122.115295,50.2428003 L130.683295,50.2428003 L130.683295,54.1068003 L134.211295,54.1068003 Z M130.683295,47.4428003 L125.475295,47.4428003 L130.683295,39.9108003 L130.683295,47.4428003 Z" id="4" fill="#FFFFFF" fill-rule="nonzero"></path>
            <path d="M136.231556,121.207739 L136.231556,118.295739 L127.467556,118.295739 L132.311556,113.143739 C133.468889,111.911739 134.290222,110.796406 134.775556,109.797739 C135.260889,108.799072 135.503556,107.730406 135.503556,106.591739 C135.503556,104.949072 134.924889,103.642406 133.767556,102.671739 C132.610222,101.701072 131.042222,101.215739 129.063556,101.215739 C127.831556,101.215739 126.604222,101.425739 125.381556,101.845739 C124.158889,102.265739 123.155556,102.821072 122.371556,103.511739 L122.371556,103.511739 L123.575556,106.143739 C125.367556,104.781072 127.150222,104.099739 128.923556,104.099739 C129.912889,104.099739 130.664222,104.328406 131.177556,104.785739 C131.690889,105.243072 131.947556,105.919739 131.947556,106.815739 C131.947556,107.525072 131.765556,108.239072 131.401556,108.957739 C131.037556,109.676406 130.463556,110.465072 129.679556,111.323739 L129.679556,111.323739 L122.959556,118.547739 L122.959556,121.207739 L136.231556,121.207739 Z" id="2" fill="#FFFFFF" fill-rule="nonzero"></path>
            <path d="M127.911295,188.308678 L127.911295,185.396678 L123.627295,185.396678 L123.627295,168.568678 L121.051295,168.568678 L115.199295,172.096678 L116.627295,174.728678 L120.015295,172.684678 L120.015295,185.396678 L115.731295,185.396678 L115.731295,188.308678 L127.911295,188.308678 Z M144.711295,188.308678 L144.711295,185.396678 L140.427295,185.396678 L140.427295,168.568678 L137.851295,168.568678 L131.999295,172.096678 L133.427295,174.728678 L136.815295,172.684678 L136.815295,185.396678 L132.531295,185.396678 L132.531295,188.308678 L144.711295,188.308678 Z" id="11" fill="#FFFFFF" fill-rule="nonzero"></path>
            <path d="M193.057427,54.224 C195.222761,54.224 196.935427,53.7246667 198.195427,52.726 C199.455427,51.7273333 200.085427,50.3693333 200.085427,48.652 C200.085427,47.42 199.772761,46.3886667 199.147427,45.558 C198.522094,44.7273333 197.630761,44.1626667 196.473427,43.864 C197.444094,43.5093333 198.204761,42.926 198.755427,42.114 C199.306094,41.302 199.590761,40.3453333 199.609427,39.244 C199.609427,37.6386667 199.030761,36.3646667 197.873427,35.422 C196.716094,34.4793333 195.166761,34.008 193.225427,34.008 C191.956094,34.008 190.710094,34.2133333 189.487427,34.624 C188.264761,35.0346667 187.261427,35.5946667 186.477427,36.304 L186.477427,36.304 L187.681427,38.936 C188.540094,38.264 189.422094,37.7553333 190.327427,37.41 C191.232761,37.0646667 192.124094,36.892 193.001427,36.892 C194.009427,36.892 194.788761,37.1346667 195.339427,37.62 C195.890094,38.1053333 196.165427,38.796 196.165427,39.692 C196.165427,41.6146667 194.886761,42.576 192.329427,42.576 L192.329427,42.576 L190.201427,42.576 L190.201427,45.432 L192.805427,45.432 C194.112094,45.432 195.078094,45.67 195.703427,46.146 C196.328761,46.622 196.641427,47.3546667 196.641427,48.344 C196.641427,49.352 196.333427,50.1033333 195.717427,50.598 C195.101427,51.0926667 194.168094,51.34 192.917427,51.34 C190.957427,51.34 189.118761,50.6586667 187.401427,49.296 L187.401427,49.296 L186.197427,51.928 C187.000094,52.6373333 188.012761,53.1973333 189.235427,53.608 C190.458094,54.0186667 191.732094,54.224 193.057427,54.224 Z" id="3" fill="#FFFFFF" fill-rule="nonzero"></path>
            <path d="M189.193427,114.896 L189.193427,112.124 L180.849427,112.124 L180.849427,114.896 L189.193427,114.896 Z M199.497427,121.224 C200.972094,121.224 202.255427,120.953333 203.347427,120.412 C204.439427,119.870667 205.284094,119.105333 205.881427,118.116 C206.478761,117.126667 206.777427,115.978667 206.777427,114.672 C206.777427,113.44 206.520761,112.348 206.007427,111.396 C205.494094,110.444 204.766094,109.702 203.823427,109.17 C202.880761,108.638 201.793427,108.372 200.561427,108.372 C199.161427,108.372 197.985427,108.708 197.033427,109.38 L197.033427,109.38 L197.033427,104.06 L205.881427,104.06 L205.881427,101.26 L193.505427,101.26 L193.505427,112.88 L195.661427,112.88 C196.202761,112.338667 196.814094,111.923333 197.495427,111.634 C198.176761,111.344667 198.900094,111.2 199.665427,111.2 C200.804094,111.2 201.704761,111.522 202.367427,112.166 C203.030094,112.81 203.361427,113.682667 203.361427,114.784 C203.361427,115.922667 203.034761,116.8 202.381427,117.416 C201.728094,118.032 200.785427,118.34 199.553427,118.34 C197.686761,118.34 195.857427,117.658667 194.065427,116.296 L194.065427,116.296 L192.861427,118.928 C193.645427,119.618667 194.639427,120.174 195.843427,120.594 C197.047427,121.014 198.265427,121.224 199.497427,121.224 Z" id="-5" fill="#FFFFFF" fill-rule="nonzero"></path>
            <path d="M188.772,181.896 L188.772,179.124 L180.428,179.124 L180.428,181.896 L188.772,181.896 Z M203.948,188 L203.948,184.136 L206.72,184.136 L206.72,181.336 L203.948,181.336 L203.948,168.26 L201.036,168.26 L191.852,181.476 L191.852,184.136 L200.42,184.136 L200.42,188 L203.948,188 Z M200.42,181.336 L195.212,181.336 L200.42,173.804 L200.42,181.336 Z" id="-4" fill="#FFFFFF" fill-rule="nonzero"></path>
            <polyline id="Path" stroke="#FFFFFF" stroke-width="2.1" points="28.3990439 0 0 0 0 220 28.3990439 220"></polyline>
            <polyline id="Path-Copy" stroke="#FFFFFF" stroke-width="2.1" transform="translate(238.800478, 110.000000) rotate(-180.000000) translate(-238.800478, -110.000000) " points="253 0 224.600956 0 224.600956 220 253 220"></polyline>
        </g>
        <g id="Group-2-Copy-11" transform="translate(788.000000, 487.000000)">
            <g id="Group" transform="translate(-0.000000, 0.000000)">
                <path d="M67.5555861,54.1068003 L67.5555861,51.1948003 L58.7915861,51.1948003 L63.6355861,46.0428003 C64.7929194,44.8108003 65.6142527,43.6954669 66.0995861,42.6968003 C66.5849194,41.6981336 66.8275861,40.6294669 66.8275861,39.4908003 C66.8275861,37.8481336 66.2489194,36.5414669 65.0915861,35.5708003 C63.9342527,34.6001336 62.3662527,34.1148003 60.3875861,34.1148003 C59.1555861,34.1148003 57.9282527,34.3248003 56.7055861,34.7448003 C55.4829194,35.1648003 54.4795861,35.7201336 53.6955861,36.4108003 L53.6955861,36.4108003 L54.8995861,39.0428003 C56.6915861,37.6801336 58.4742527,36.9988003 60.2475861,36.9988003 C61.2369194,36.9988003 61.9882527,37.2274669 62.5015861,37.6848003 C63.0149194,38.1421336 63.2715861,38.8188003 63.2715861,39.7148003 C63.2715861,40.4241336 63.0895861,41.1381336 62.7255861,41.8568003 C62.3615861,42.5754669 61.7875861,43.3641336 61.0035861,44.2228003 L61.0035861,44.2228003 L54.2835861,51.4468003 L54.2835861,54.1068003 L67.5555861,54.1068003 Z" id="2" fill="#FFFFFF" fill-rule="nonzero"></path>
                <path d="M59.2158464,121.207739 L59.2158464,118.295739 L54.9318464,118.295739 L54.9318464,101.467739 L52.3558464,101.467739 L46.5038464,104.995739 L47.9318464,107.627739 L51.3198464,105.583739 L51.3198464,118.295739 L47.0358464,118.295739 L47.0358464,121.207739 L59.2158464,121.207739 Z M76.0158464,121.207739 L76.0158464,118.295739 L71.7318464,118.295739 L71.7318464,101.467739 L69.1558464,101.467739 L63.3038464,104.995739 L64.7318464,107.627739 L68.1198464,105.583739 L68.1198464,118.295739 L63.8358464,118.295739 L63.8358464,121.207739 L76.0158464,121.207739 Z" id="11" fill="#FFFFFF" fill-rule="nonzero"></path>
                <path d="M65.5158464,188.308678 L65.5158464,184.444678 L68.2878464,184.444678 L68.2878464,181.644678 L65.5158464,181.644678 L65.5158464,168.568678 L62.6038464,168.568678 L53.4198464,181.784678 L53.4198464,184.444678 L61.9878464,184.444678 L61.9878464,188.308678 L65.5158464,188.308678 Z M61.9878464,181.644678 L56.7798464,181.644678 L61.9878464,174.112678 L61.9878464,181.644678 Z" id="4" fill="#FFFFFF" fill-rule="nonzero"></path>
                <path d="M125.055295,48.0028003 L125.279295,45.2308003 L116.935295,45.2308003 L116.711295,48.0028003 L125.055295,48.0028003 Z M135.303295,54.3308003 C136.777962,54.3308003 138.075295,54.0461336 139.195295,53.4768003 C140.315295,52.9074669 141.178629,52.0908003 141.785295,51.0268003 C142.391962,49.9628003 142.695295,48.7121336 142.695295,47.2748003 C142.695295,46.1361336 142.443295,45.1281336 141.939295,44.2508003 C141.435295,43.3734669 140.730629,42.6921336 139.825295,42.2068003 C138.919962,41.7214669 137.879295,41.4788003 136.703295,41.4788003 C135.452629,41.4788003 134.332629,41.7774669 133.343295,42.3748003 L133.343295,42.3748003 L133.763295,37.1668003 L142.583295,37.1668003 L142.807295,34.3668003 L130.459295,34.3668003 L129.535295,45.9868003 L131.691295,45.9868003 C132.699295,44.8668003 134.033962,44.3068003 135.695295,44.3068003 C136.796629,44.3068003 137.664629,44.6054669 138.299295,45.2028003 C138.933962,45.8001336 139.251295,46.6121336 139.251295,47.6388003 C139.251295,48.8148003 138.896629,49.7434669 138.187295,50.4248003 C137.477962,51.1061336 136.507295,51.4468003 135.275295,51.4468003 C133.296629,51.4468003 131.485962,50.7654669 129.843295,49.4028003 L129.843295,49.4028003 L128.443295,52.0348003 C129.339295,52.7628003 130.375295,53.3274669 131.551295,53.7288003 C132.727295,54.1301336 133.977962,54.3308003 135.303295,54.3308003 Z" id="-5" fill="#FFFFFF" fill-rule="nonzero"></path>
                <path d="M125.101556,115.103739 L125.101556,112.331739 L116.757556,112.331739 L116.757556,115.103739 L125.101556,115.103739 Z M140.277556,121.207739 L140.277556,117.343739 L143.049556,117.343739 L143.049556,114.543739 L140.277556,114.543739 L140.277556,101.467739 L137.365556,101.467739 L128.181556,114.683739 L128.181556,117.343739 L136.749556,117.343739 L136.749556,121.207739 L140.277556,121.207739 Z M136.749556,114.543739 L131.541556,114.543739 L136.749556,107.011739 L136.749556,114.543739 Z" id="-4" fill="#FFFFFF" fill-rule="nonzero"></path>
                <path d="M128.975295,188.532678 C131.140629,188.532678 132.853295,188.033344 134.113295,187.034678 C135.373295,186.036011 136.003295,184.678011 136.003295,182.960678 C136.003295,181.728678 135.690629,180.697344 135.065295,179.866678 C134.439962,179.036011 133.548629,178.471344 132.391295,178.172678 C133.361962,177.818011 134.122629,177.234678 134.673295,176.422678 C135.223962,175.610678 135.508629,174.654011 135.527295,173.552678 C135.527295,171.947344 134.948629,170.673344 133.791295,169.730678 C132.633962,168.788011 131.084629,168.316678 129.143295,168.316678 C127.873962,168.316678 126.627962,168.522011 125.405295,168.932678 C124.182629,169.343344 123.179295,169.903344 122.395295,170.612678 L122.395295,170.612678 L123.599295,173.244678 C124.457962,172.572678 125.339962,172.064011 126.245295,171.718678 C127.150629,171.373344 128.041962,171.200678 128.919295,171.200678 C129.927295,171.200678 130.706629,171.443344 131.257295,171.928678 C131.807962,172.414011 132.083295,173.104678 132.083295,174.000678 C132.083295,175.923344 130.804629,176.884678 128.247295,176.884678 L128.247295,176.884678 L126.119295,176.884678 L126.119295,179.740678 L128.723295,179.740678 C130.029962,179.740678 130.995962,179.978678 131.621295,180.454678 C132.246629,180.930678 132.559295,181.663344 132.559295,182.652678 C132.559295,183.660678 132.251295,184.412011 131.635295,184.906678 C131.019295,185.401344 130.085962,185.648678 128.835295,185.648678 C126.875295,185.648678 125.036629,184.967344 123.319295,183.604678 L123.319295,183.604678 L122.115295,186.236678 C122.917962,186.946011 123.930629,187.506011 125.153295,187.916678 C126.375962,188.327344 127.649962,188.532678 128.975295,188.532678 Z" id="3" fill="#FFFFFF" fill-rule="nonzero"></path>
                <polygon id="1" fill="#FFFFFF" fill-rule="nonzero" points="201.265009 54.1068003 201.265009 51.1948003 196.981009 51.1948003 196.981009 34.3668003 194.405009 34.3668003 188.553009 37.8948003 189.981009 40.5268003 193.369009 38.4828003 193.369009 51.1948003 189.085009 51.1948003 189.085009 54.1068003"></polygon>
                <path d="M194.937009,121.459739 C196.206343,121.459739 197.345009,121.179739 198.353009,120.619739 C199.361009,120.059739 200.145009,119.280406 200.705009,118.281739 C201.265009,117.283072 201.545009,116.149072 201.545009,114.879739 C201.545009,113.647739 201.288343,112.551072 200.775009,111.589739 C200.261676,110.628406 199.547676,109.881739 198.633009,109.349739 C197.718343,108.817739 196.682343,108.551739 195.525009,108.551739 C194.461009,108.551739 193.499676,108.789739 192.641009,109.265739 C191.782343,109.741739 191.138343,110.399739 190.709009,111.239739 C190.746343,108.925072 191.166343,107.156406 191.969009,105.933739 C192.771676,104.711072 193.891676,104.099739 195.329009,104.099739 C196.934343,104.099739 198.605009,104.781072 200.341009,106.143739 L200.341009,106.143739 L201.545009,103.511739 C200.723676,102.783739 199.753009,102.219072 198.633009,101.817739 C197.513009,101.416406 196.365009,101.215739 195.189009,101.215739 C193.527676,101.215739 192.090343,101.631072 190.877009,102.461739 C189.663676,103.292406 188.735009,104.496406 188.091009,106.073739 C187.447009,107.651072 187.125009,109.522406 187.125009,111.687739 C187.125009,114.823739 187.801676,117.236406 189.155009,118.925739 C190.508343,120.615072 192.435676,121.459739 194.937009,121.459739 Z M194.769009,118.603739 C193.723676,118.603739 192.879009,118.272406 192.235009,117.609739 C191.591009,116.947072 191.269009,116.074406 191.269009,114.991739 C191.269009,113.927739 191.591009,113.064406 192.235009,112.401739 C192.879009,111.739072 193.714343,111.407739 194.741009,111.407739 C195.767676,111.407739 196.589009,111.734406 197.205009,112.387739 C197.821009,113.041072 198.129009,113.909072 198.129009,114.991739 C198.129009,116.093072 197.825676,116.970406 197.219009,117.623739 C196.612343,118.277072 195.795676,118.603739 194.769009,118.603739 Z" id="6" fill="#FFFFFF" fill-rule="nonzero"></path>
                <path d="M189.797004,182.204678 L189.797004,179.432678 L181.453004,179.432678 L181.453004,182.204678 L189.797004,182.204678 Z M198.029004,188.308678 L206.989004,171.256678 L206.989004,168.568678 L193.241004,168.568678 L193.241004,171.480678 L203.125004,171.480678 L194.193004,188.308678 L198.029004,188.308678 Z" id="-7" fill="#FFFFFF" fill-rule="nonzero"></path>
                <polyline id="Path" stroke="#FFFFFF" stroke-width="2.1" points="28.3990439 0 0 0 0 220 28.3990439 220"></polyline>
                <polyline id="Path-Copy" stroke="#FFFFFF" stroke-width="2.1" transform="translate(237.800478, 110.000000) rotate(-180.000000) translate(-237.800478, -110.000000) " points="252 0 223.600956 0 223.600956 220 252 220"></polyline>
            </g>
        </g>
        <path d="M515.63,95.27 C517.05,95.27 518.39,95.05 519.65,94.61 C520.91,94.17 521.97,93.55 522.83,92.75 L522.83,92.75 L521.54,89.93 C520.58,90.69 519.63,91.245 518.69,91.595 C517.75,91.945 516.75,92.12 515.69,92.12 C513.65,92.12 512.075,91.46 510.965,90.14 C509.855,88.82 509.3,86.91 509.3,84.41 C509.3,81.93 509.855,80.03 510.965,78.71 C512.075,77.39 513.65,76.73 515.69,76.73 C516.75,76.73 517.75,76.905 518.69,77.255 C519.63,77.605 520.58,78.16 521.54,78.92 L521.54,78.92 L522.83,76.1 C521.97,75.3 520.91,74.68 519.65,74.24 C518.39,73.8 517.05,73.58 515.63,73.58 C513.55,73.58 511.735,74.025 510.185,74.915 C508.635,75.805 507.445,77.065 506.615,78.695 C505.785,80.325 505.37,82.23 505.37,84.41 C505.37,86.59 505.785,88.5 506.615,90.14 C507.445,91.78 508.635,93.045 510.185,93.935 C511.735,94.825 513.55,95.27 515.63,95.27 Z M532.73,95.24 C534.23,95.24 535.545,94.93 536.675,94.31 C537.805,93.69 538.675,92.8 539.285,91.64 C539.895,90.48 540.2,89.13 540.2,87.59 C540.2,86.05 539.895,84.705 539.285,83.555 C538.675,82.405 537.805,81.52 536.675,80.9 C535.545,80.28 534.23,79.97 532.73,79.97 C531.23,79.97 529.915,80.28 528.785,80.9 C527.655,81.52 526.78,82.405 526.16,83.555 C525.54,84.705 525.23,86.05 525.23,87.59 C525.23,89.13 525.54,90.48 526.16,91.64 C526.78,92.8 527.655,93.69 528.785,94.31 C529.915,94.93 531.23,95.24 532.73,95.24 Z M532.7,92.33 C531.5,92.33 530.58,91.93 529.94,91.13 C529.3,90.33 528.98,89.15 528.98,87.59 C528.98,86.05 529.305,84.875 529.955,84.065 C530.605,83.255 531.53,82.85 532.73,82.85 C533.93,82.85 534.85,83.255 535.49,84.065 C536.13,84.875 536.45,86.05 536.45,87.59 C536.45,89.15 536.13,90.33 535.49,91.13 C534.85,91.93 533.92,92.33 532.7,92.33 Z M547.04,95 L547.04,73.85 L543.29,73.85 L543.29,95 L547.04,95 Z M556.22,95.24 C557.2,95.24 558.08,95.025 558.86,94.595 C559.64,94.165 560.26,93.55 560.72,92.75 L560.72,92.75 L560.72,95 L564.38,95 L564.38,80.33 L560.63,80.33 L560.63,88.49 C560.63,89.63 560.315,90.545 559.685,91.235 C559.055,91.925 558.22,92.27 557.18,92.27 C556.28,92.27 555.62,92.02 555.2,91.52 C554.78,91.02 554.57,90.25 554.57,89.21 L554.57,89.21 L554.57,80.33 L550.82,80.33 L550.82,89.18 C550.82,93.22 552.62,95.24 556.22,95.24 Z M572.03,95 L572.03,86.81 C572.03,85.59 572.31,84.64 572.87,83.96 C573.43,83.28 574.2,82.94 575.18,82.94 C576.04,82.94 576.655,83.195 577.025,83.705 C577.395,84.215 577.58,85.03 577.58,86.15 L577.58,86.15 L577.58,95 L581.33,95 L581.33,86.81 C581.33,85.59 581.61,84.64 582.17,83.96 C582.73,83.28 583.51,82.94 584.51,82.94 C585.35,82.94 585.96,83.195 586.34,83.705 C586.72,84.215 586.91,85.03 586.91,86.15 L586.91,86.15 L586.91,95 L590.66,95 L590.66,86 C590.66,83.96 590.25,82.445 589.43,81.455 C588.61,80.465 587.37,79.97 585.71,79.97 C584.65,79.97 583.69,80.215 582.83,80.705 C581.97,81.195 581.31,81.87 580.85,82.73 C580.13,80.89 578.66,79.97 576.44,79.97 C575.44,79.97 574.55,80.175 573.77,80.585 C572.99,80.995 572.38,81.6 571.94,82.4 L571.94,82.4 L571.94,80.33 L568.28,80.33 L568.28,95 L572.03,95 Z M598.22,95 L598.22,86.69 C598.22,85.55 598.545,84.64 599.195,83.96 C599.845,83.28 600.71,82.94 601.79,82.94 C602.71,82.94 603.385,83.2 603.815,83.72 C604.245,84.24 604.46,85.07 604.46,86.21 L604.46,86.21 L604.46,95 L608.21,95 L608.21,86 C608.21,83.98 607.78,82.47 606.92,81.47 C606.06,80.47 604.75,79.97 602.99,79.97 C601.93,79.97 600.98,80.19 600.14,80.63 C599.3,81.07 598.63,81.7 598.13,82.52 L598.13,82.52 L598.13,80.33 L594.47,80.33 L594.47,95 L598.22,95 Z M627.65,95.27 C629.37,95.27 630.865,95.015 632.135,94.505 C633.405,93.995 634.375,93.265 635.045,92.315 C635.715,91.365 636.05,90.26 636.05,89 C636.05,87.84 635.755,86.88 635.165,86.12 C634.575,85.36 633.725,84.735 632.615,84.245 C631.505,83.755 630.06,83.31 628.28,82.91 C626.6,82.53 625.41,82.12 624.71,81.68 C624.01,81.24 623.66,80.61 623.66,79.79 C623.66,78.81 624.055,78.045 624.845,77.495 C625.635,76.945 626.71,76.67 628.07,76.67 C630.35,76.67 632.43,77.42 634.31,78.92 L634.31,78.92 L635.6,76.1 C634.74,75.32 633.64,74.705 632.3,74.255 C630.96,73.805 629.55,73.58 628.07,73.58 C626.45,73.58 625.02,73.855 623.78,74.405 C622.54,74.955 621.58,75.72 620.9,76.7 C620.22,77.68 619.88,78.79 619.88,80.03 C619.88,81.23 620.16,82.22 620.72,83 C621.28,83.78 622.11,84.42 623.21,84.92 C624.31,85.42 625.74,85.86 627.5,86.24 C629.2,86.62 630.415,87.02 631.145,87.44 C631.875,87.86 632.24,88.47 632.24,89.27 C632.24,90.19 631.845,90.905 631.055,91.415 C630.265,91.925 629.14,92.18 627.68,92.18 C626.36,92.18 625.135,92 624.005,91.64 C622.875,91.28 621.8,90.71 620.78,89.93 L620.78,89.93 L619.49,92.75 C620.47,93.55 621.67,94.17 623.09,94.61 C624.51,95.05 626.03,95.27 627.65,95.27 Z M646.61,95 L650.12,85.55 L653.72,95 L656.99,95 L662.75,80.33 L659.09,80.33 L655.37,90.59 L651.62,80.33 L648.92,80.33 L645.17,90.53 L641.42,80.33 L637.58,80.33 L643.37,95 L646.61,95 Z M669.65,95.24 C670.61,95.24 671.455,95.02 672.185,94.58 C672.915,94.14 673.45,93.53 673.79,92.75 L673.79,92.75 L673.79,95 L677.36,95 L677.36,86.09 C677.36,84.01 676.86,82.47 675.86,81.47 C674.86,80.47 673.33,79.97 671.27,79.97 C670.23,79.97 669.13,80.14 667.97,80.48 C666.81,80.82 665.82,81.25 665,81.77 L665,81.77 L666.05,84.35 C666.87,83.87 667.705,83.495 668.555,83.225 C669.405,82.955 670.22,82.82 671,82.82 C672,82.82 672.715,83.04 673.145,83.48 C673.575,83.92 673.79,84.64 673.79,85.64 L673.79,85.64 L673.79,86.33 L673.04,86.33 C670.86,86.33 669.15,86.47 667.91,86.75 C666.67,87.03 665.775,87.48 665.225,88.1 C664.675,88.72 664.4,89.57 664.4,90.65 C664.4,91.51 664.63,92.29 665.09,92.99 C665.55,93.69 666.18,94.24 666.98,94.64 C667.78,95.04 668.67,95.24 669.65,95.24 Z M670.4,92.54 C669.72,92.54 669.16,92.335 668.72,91.925 C668.28,91.515 668.06,90.99 668.06,90.35 C668.06,89.83 668.22,89.42 668.54,89.12 C668.86,88.82 669.39,88.61 670.13,88.49 C670.87,88.37 671.91,88.31 673.25,88.31 L673.25,88.31 L673.79,88.31 L673.79,88.94 C673.79,90 673.475,90.865 672.845,91.535 C672.215,92.205 671.4,92.54 670.4,92.54 Z M684.92,100.4 L684.92,92.75 C685.36,93.53 685.99,94.14 686.81,94.58 C687.63,95.02 688.56,95.24 689.6,95.24 C690.88,95.24 692.01,94.93 692.99,94.31 C693.97,93.69 694.735,92.81 695.285,91.67 C695.835,90.53 696.11,89.2 696.11,87.68 C696.11,86.16 695.835,84.815 695.285,83.645 C694.735,82.475 693.965,81.57 692.975,80.93 C691.985,80.29 690.86,79.97 689.6,79.97 C688.54,79.97 687.595,80.195 686.765,80.645 C685.935,81.095 685.3,81.73 684.86,82.55 L684.86,82.55 L684.86,80.33 L681.17,80.33 L681.17,100.4 L684.92,100.4 Z M688.61,92.33 C687.41,92.33 686.485,91.92 685.835,91.1 C685.185,90.28 684.86,89.12 684.86,87.62 C684.86,86.1 685.185,84.93 685.835,84.11 C686.485,83.29 687.41,82.88 688.61,82.88 C689.79,82.88 690.71,83.3 691.37,84.14 C692.03,84.98 692.36,86.16 692.36,87.68 C692.36,89.16 692.03,90.305 691.37,91.115 C690.71,91.925 689.79,92.33 688.61,92.33 Z" id="ColumnSwap" fill="#FFFFFF" fill-rule="nonzero"></path>
        <path d="M531.11,446 L531.11,437.51 L534.05,437.51 C534.81,437.51 535.44,437.64 535.94,437.9 C536.44,438.16 536.86,438.61 537.2,439.25 L537.2,439.25 L540.83,446 L545.03,446 L541.49,439.52 C540.81,438.24 539.91,437.45 538.79,437.15 C540.45,436.83 541.735,436.145 542.645,435.095 C543.555,434.045 544.01,432.71 544.01,431.09 C544.01,429.07 543.385,427.525 542.135,426.455 C540.885,425.385 539.06,424.85 536.66,424.85 L536.66,424.85 L527.3,424.85 L527.3,446 L531.11,446 Z M536.12,434.54 L531.08,434.54 L531.08,427.85 L536.12,427.85 C537.58,427.85 538.65,428.115 539.33,428.645 C540.01,429.175 540.35,430.02 540.35,431.18 C540.35,432.32 540.01,433.165 539.33,433.715 C538.65,434.265 537.58,434.54 536.12,434.54 L536.12,434.54 Z M554.51,446.24 C556.01,446.24 557.325,445.93 558.455,445.31 C559.585,444.69 560.455,443.8 561.065,442.64 C561.675,441.48 561.98,440.13 561.98,438.59 C561.98,437.05 561.675,435.705 561.065,434.555 C560.455,433.405 559.585,432.52 558.455,431.9 C557.325,431.28 556.01,430.97 554.51,430.97 C553.01,430.97 551.695,431.28 550.565,431.9 C549.435,432.52 548.56,433.405 547.94,434.555 C547.32,435.705 547.01,437.05 547.01,438.59 C547.01,440.13 547.32,441.48 547.94,442.64 C548.56,443.8 549.435,444.69 550.565,445.31 C551.695,445.93 553.01,446.24 554.51,446.24 Z M554.48,443.33 C553.28,443.33 552.36,442.93 551.72,442.13 C551.08,441.33 550.76,440.15 550.76,438.59 C550.76,437.05 551.085,435.875 551.735,435.065 C552.385,434.255 553.31,433.85 554.51,433.85 C555.71,433.85 556.63,434.255 557.27,435.065 C557.91,435.875 558.23,437.05 558.23,438.59 C558.23,440.15 557.91,441.33 557.27,442.13 C556.63,442.93 555.7,443.33 554.48,443.33 Z M572.39,446 L575.9,436.55 L579.5,446 L582.77,446 L588.53,431.33 L584.87,431.33 L581.15,441.59 L577.4,431.33 L574.7,431.33 L570.95,441.53 L567.2,431.33 L563.36,431.33 L569.15,446 L572.39,446 Z M606.38,446.27 C608.1,446.27 609.595,446.015 610.865,445.505 C612.135,444.995 613.105,444.265 613.775,443.315 C614.445,442.365 614.78,441.26 614.78,440 C614.78,438.84 614.485,437.88 613.895,437.12 C613.305,436.36 612.455,435.735 611.345,435.245 C610.235,434.755 608.79,434.31 607.01,433.91 C605.33,433.53 604.14,433.12 603.44,432.68 C602.74,432.24 602.39,431.61 602.39,430.79 C602.39,429.81 602.785,429.045 603.575,428.495 C604.365,427.945 605.44,427.67 606.8,427.67 C609.08,427.67 611.16,428.42 613.04,429.92 L613.04,429.92 L614.33,427.1 C613.47,426.32 612.37,425.705 611.03,425.255 C609.69,424.805 608.28,424.58 606.8,424.58 C605.18,424.58 603.75,424.855 602.51,425.405 C601.27,425.955 600.31,426.72 599.63,427.7 C598.95,428.68 598.61,429.79 598.61,431.03 C598.61,432.23 598.89,433.22 599.45,434 C600.01,434.78 600.84,435.42 601.94,435.92 C603.04,436.42 604.47,436.86 606.23,437.24 C607.93,437.62 609.145,438.02 609.875,438.44 C610.605,438.86 610.97,439.47 610.97,440.27 C610.97,441.19 610.575,441.905 609.785,442.415 C608.995,442.925 607.87,443.18 606.41,443.18 C605.09,443.18 603.865,443 602.735,442.64 C601.605,442.28 600.53,441.71 599.51,440.93 L599.51,440.93 L598.22,443.75 C599.2,444.55 600.4,445.17 601.82,445.61 C603.24,446.05 604.76,446.27 606.38,446.27 Z M625.34,446 L628.85,436.55 L632.45,446 L635.72,446 L641.48,431.33 L637.82,431.33 L634.1,441.59 L630.35,431.33 L627.65,431.33 L623.9,441.53 L620.15,431.33 L616.31,431.33 L622.1,446 L625.34,446 Z M648.38,446.24 C649.34,446.24 650.185,446.02 650.915,445.58 C651.645,445.14 652.18,444.53 652.52,443.75 L652.52,443.75 L652.52,446 L656.09,446 L656.09,437.09 C656.09,435.01 655.59,433.47 654.59,432.47 C653.59,431.47 652.06,430.97 650,430.97 C648.96,430.97 647.86,431.14 646.7,431.48 C645.54,431.82 644.55,432.25 643.73,432.77 L643.73,432.77 L644.78,435.35 C645.6,434.87 646.435,434.495 647.285,434.225 C648.135,433.955 648.95,433.82 649.73,433.82 C650.73,433.82 651.445,434.04 651.875,434.48 C652.305,434.92 652.52,435.64 652.52,436.64 L652.52,436.64 L652.52,437.33 L651.77,437.33 C649.59,437.33 647.88,437.47 646.64,437.75 C645.4,438.03 644.505,438.48 643.955,439.1 C643.405,439.72 643.13,440.57 643.13,441.65 C643.13,442.51 643.36,443.29 643.82,443.99 C644.28,444.69 644.91,445.24 645.71,445.64 C646.51,446.04 647.4,446.24 648.38,446.24 Z M649.13,443.54 C648.45,443.54 647.89,443.335 647.45,442.925 C647.01,442.515 646.79,441.99 646.79,441.35 C646.79,440.83 646.95,440.42 647.27,440.12 C647.59,439.82 648.12,439.61 648.86,439.49 C649.6,439.37 650.64,439.31 651.98,439.31 L651.98,439.31 L652.52,439.31 L652.52,439.94 C652.52,441 652.205,441.865 651.575,442.535 C650.945,443.205 650.13,443.54 649.13,443.54 Z M663.65,451.4 L663.65,443.75 C664.09,444.53 664.72,445.14 665.54,445.58 C666.36,446.02 667.29,446.24 668.33,446.24 C669.61,446.24 670.74,445.93 671.72,445.31 C672.7,444.69 673.465,443.81 674.015,442.67 C674.565,441.53 674.84,440.2 674.84,438.68 C674.84,437.16 674.565,435.815 674.015,434.645 C673.465,433.475 672.695,432.57 671.705,431.93 C670.715,431.29 669.59,430.97 668.33,430.97 C667.27,430.97 666.325,431.195 665.495,431.645 C664.665,432.095 664.03,432.73 663.59,433.55 L663.59,433.55 L663.59,431.33 L659.9,431.33 L659.9,451.4 L663.65,451.4 Z M667.34,443.33 C666.14,443.33 665.215,442.92 664.565,442.1 C663.915,441.28 663.59,440.12 663.59,438.62 C663.59,437.1 663.915,435.93 664.565,435.11 C665.215,434.29 666.14,433.88 667.34,433.88 C668.52,433.88 669.44,434.3 670.1,435.14 C670.76,435.98 671.09,437.16 671.09,438.68 C671.09,440.16 670.76,441.305 670.1,442.115 C669.44,442.925 668.52,443.33 667.34,443.33 Z" id="RowSwap" fill="#FFFFFF" fill-rule="nonzero"></path>
        <path d="M765.664,247.464 L765.664,245 L752,245 L752,247.464 L765.664,247.464 Z M765.664,253.064 L765.664,250.6 L752,250.6 L752,253.064 L765.664,253.064 Z" id="=" fill="#FFFFFF" fill-rule="nonzero"></path>
        <path d="M765.664,598.464 L765.664,596 L752,596 L752,598.464 L765.664,598.464 Z M765.664,604.064 L765.664,601.6 L752,601.6 L752,604.064 L765.664,604.064 Z" id="=" fill="#FFFFFF" fill-rule="nonzero"></path>
    </g>
</svg>