<?xml version="1.0" encoding="UTF-8"?>
<svg width="1200px" height="800px" viewBox="0 0 1200 800" version="1.1" xmlns="http://www.w3.org/2000/svg" xmlns:xlink="http://www.w3.org/1999/xlink">
    <title>Road diagram </title>
    <g id="Road-diagram-" stroke="none" stroke-width="1" fill="none" fill-rule="evenodd">
        <polygon id="Line" fill="#10162F" fill-rule="nonzero" points="310.5 154.5 310.5 645.5 300.5 645.5 300.5 154.5"></polygon>
        <polygon id="Line" fill="#10162F" fill-rule="nonzero" points="171.246952 244.49695 171.25305 234.496952 1001.25305 235.00305 1001.24695 245.003048"></polygon>
        <path d="M597.813585,296.32 C599.093585,296.32 600.220252,296.026667 601.193585,295.44 C602.166918,294.853333 602.880252,294.04 603.333585,293 L603.333585,293 L603.333585,296 L608.093585,296 L608.093585,284.12 C608.093585,281.346667 607.426918,279.293333 606.093585,277.96 C604.760252,276.626667 602.720252,275.96 599.973585,275.96 C598.586918,275.96 597.120252,276.186667 595.573585,276.64 C594.026918,277.093333 592.706918,277.666667 591.613585,278.36 L591.613585,278.36 L593.013585,281.8 C594.106918,281.16 595.220252,280.66 596.353585,280.3 C597.486918,279.94 598.573585,279.76 599.613585,279.76 C600.946918,279.76 601.900252,280.053333 602.473585,280.64 C603.046918,281.226667 603.333585,282.186667 603.333585,283.52 L603.333585,283.52 L603.333585,284.44 L602.333585,284.44 C599.426918,284.44 597.146918,284.626667 595.493585,285 C593.840252,285.373333 592.646918,285.973333 591.913585,286.8 C591.180252,287.626667 590.813585,288.76 590.813585,290.2 C590.813585,291.346667 591.120252,292.386667 591.733585,293.32 C592.346918,294.253333 593.186918,294.986667 594.253585,295.52 C595.320252,296.053333 596.506918,296.32 597.813585,296.32 Z M598.813585,292.72 C597.906918,292.72 597.160252,292.446667 596.573585,291.9 C595.986918,291.353333 595.693585,290.653333 595.693585,289.8 C595.693585,289.106667 595.906918,288.56 596.333585,288.16 C596.760252,287.76 597.466918,287.48 598.453585,287.32 C599.440252,287.16 600.826918,287.08 602.613585,287.08 L602.613585,287.08 L603.333585,287.08 L603.333585,287.92 C603.333585,289.333333 602.913585,290.486667 602.073585,291.38 C601.233585,292.273333 600.146918,292.72 598.813585,292.72 Z" id="a" fill="#E91C11" fill-rule="nonzero"></path>
        <path d="M230.86,336 L230.86,331.84 L218.34,331.84 L225.26,324.48 C226.913333,322.72 228.086667,321.126667 228.78,319.7 C229.473333,318.273333 229.82,316.746667 229.82,315.12 C229.82,312.773333 228.993333,310.906667 227.34,309.52 C225.686667,308.133333 223.446667,307.44 220.62,307.44 C218.86,307.44 217.106667,307.74 215.36,308.34 C213.613333,308.94 212.18,309.733333 211.06,310.72 L211.06,310.72 L212.78,314.48 C215.34,312.533333 217.886667,311.56 220.42,311.56 C221.833333,311.56 222.906667,311.886667 223.64,312.54 C224.373333,313.193333 224.74,314.16 224.74,315.44 C224.74,316.453333 224.48,317.473333 223.96,318.5 C223.44,319.526667 222.62,320.653333 221.5,321.88 L221.5,321.88 L211.9,332.2 L211.9,336 L230.86,336 Z M245.02,336.36 C248.353333,336.36 250.9,335.12 252.66,332.64 C254.42,330.16 255.3,326.573333 255.3,321.88 C255.3,317.213333 254.42,313.653333 252.66,311.2 C250.9,308.746667 248.353333,307.52 245.02,307.52 C241.686667,307.52 239.14,308.746667 237.38,311.2 C235.62,313.653333 234.74,317.213333 234.74,321.88 C234.74,326.6 235.62,330.193333 237.38,332.66 C239.14,335.126667 241.686667,336.36 245.02,336.36 Z M245.02,332.32 C243.206667,332.32 241.886667,331.486667 241.06,329.82 C240.233333,328.153333 239.82,325.506667 239.82,321.88 C239.82,318.28 240.233333,315.66 241.06,314.02 C241.886667,312.38 243.206667,311.56 245.02,311.56 C246.833333,311.56 248.153333,312.38 248.98,314.02 C249.806667,315.66 250.22,318.28 250.22,321.88 C250.22,325.506667 249.806667,328.153333 248.98,329.82 C248.153333,331.486667 246.833333,332.32 245.02,332.32 Z" id="20" fill="#10162F" fill-rule="nonzero"></path>
        <path d="M927.48,336.32 C930.573333,336.32 933.02,335.606667 934.82,334.18 C936.62,332.753333 937.52,330.813333 937.52,328.36 C937.52,326.6 937.073333,325.126667 936.18,323.94 C935.286667,322.753333 934.013333,321.946667 932.36,321.52 C933.746667,321.013333 934.833333,320.18 935.62,319.02 C936.406667,317.86 936.813333,316.493333 936.84,314.92 C936.84,312.626667 936.013333,310.806667 934.36,309.46 C932.706667,308.113333 930.493333,307.44 927.72,307.44 C925.906667,307.44 924.126667,307.733333 922.38,308.32 C920.633333,308.906667 919.2,309.706667 918.08,310.72 L918.08,310.72 L919.8,314.48 C921.026667,313.52 922.286667,312.793333 923.58,312.3 C924.873333,311.806667 926.146667,311.56 927.4,311.56 C928.84,311.56 929.953333,311.906667 930.74,312.6 C931.526667,313.293333 931.92,314.28 931.92,315.56 C931.92,318.306667 930.093333,319.68 926.44,319.68 L926.44,319.68 L923.4,319.68 L923.4,323.76 L927.12,323.76 C928.986667,323.76 930.366667,324.1 931.26,324.78 C932.153333,325.46 932.6,326.506667 932.6,327.92 C932.6,329.36 932.16,330.433333 931.28,331.14 C930.4,331.846667 929.066667,332.2 927.28,332.2 C924.48,332.2 921.853333,331.226667 919.4,329.28 L919.4,329.28 L917.68,333.04 C918.826667,334.053333 920.273333,334.853333 922.02,335.44 C923.766667,336.026667 925.586667,336.32 927.48,336.32 Z M952,336.36 C955.333333,336.36 957.88,335.12 959.64,332.64 C961.4,330.16 962.28,326.573333 962.28,321.88 C962.28,317.213333 961.4,313.653333 959.64,311.2 C957.88,308.746667 955.333333,307.52 952,307.52 C948.666667,307.52 946.12,308.746667 944.36,311.2 C942.6,313.653333 941.72,317.213333 941.72,321.88 C941.72,326.6 942.6,330.193333 944.36,332.66 C946.12,335.126667 948.666667,336.36 952,336.36 Z M952,332.32 C950.186667,332.32 948.866667,331.486667 948.04,329.82 C947.213333,328.153333 946.8,325.506667 946.8,321.88 C946.8,318.28 947.213333,315.66 948.04,314.02 C948.866667,312.38 950.186667,311.56 952,311.56 C953.813333,311.56 955.133333,312.38 955.96,314.02 C956.786667,315.66 957.2,318.28 957.2,321.88 C957.2,325.506667 956.786667,328.153333 955.96,329.82 C955.133333,331.486667 953.813333,332.32 952,332.32 Z" id="30" fill="#10162F" fill-rule="nonzero"></path>
        <path d="M957.86,200 L957.86,195.84 L945.34,195.84 L952.26,188.48 C953.913333,186.72 955.086667,185.126667 955.78,183.7 C956.473333,182.273333 956.82,180.746667 956.82,179.12 C956.82,176.773333 955.993333,174.906667 954.34,173.52 C952.686667,172.133333 950.446667,171.44 947.62,171.44 C945.86,171.44 944.106667,171.74 942.36,172.34 C940.613333,172.94 939.18,173.733333 938.06,174.72 L938.06,174.72 L939.78,178.48 C942.34,176.533333 944.886667,175.56 947.42,175.56 C948.833333,175.56 949.906667,175.886667 950.64,176.54 C951.373333,177.193333 951.74,178.16 951.74,179.44 C951.74,180.453333 951.48,181.473333 950.96,182.5 C950.44,183.526667 949.62,184.653333 948.5,185.88 L948.5,185.88 L938.9,196.2 L938.9,200 L957.86,200 Z M972.02,200.32 C974.126667,200.32 975.96,199.933333 977.52,199.16 C979.08,198.386667 980.286667,197.293333 981.14,195.88 C981.993333,194.466667 982.42,192.826667 982.42,190.96 C982.42,189.2 982.053333,187.64 981.32,186.28 C980.586667,184.92 979.546667,183.86 978.2,183.1 C976.853333,182.34 975.3,181.96 973.54,181.96 C971.54,181.96 969.86,182.44 968.5,183.4 L968.5,183.4 L968.5,175.8 L981.14,175.8 L981.14,171.8 L963.46,171.8 L963.46,188.4 L966.54,188.4 C967.313333,187.626667 968.186667,187.033333 969.16,186.62 C970.133333,186.206667 971.166667,186 972.26,186 C973.886667,186 975.173333,186.46 976.12,187.38 C977.066667,188.3 977.54,189.546667 977.54,191.12 C977.54,192.746667 977.073333,194 976.14,194.88 C975.206667,195.76 973.86,196.2 972.1,196.2 C969.433333,196.2 966.82,195.226667 964.26,193.28 L964.26,193.28 L962.54,197.04 C963.66,198.026667 965.08,198.82 966.8,199.42 C968.52,200.02 970.26,200.32 972.02,200.32 Z" id="25" fill="#10162F" fill-rule="nonzero"></path>
        <path d="M386,200.32 C388.106667,200.32 389.94,199.933333 391.5,199.16 C393.06,198.386667 394.266667,197.293333 395.12,195.88 C395.973333,194.466667 396.4,192.826667 396.4,190.96 C396.4,189.2 396.033333,187.64 395.3,186.28 C394.566667,184.92 393.526667,183.86 392.18,183.1 C390.833333,182.34 389.28,181.96 387.52,181.96 C385.52,181.96 383.84,182.44 382.48,183.4 L382.48,183.4 L382.48,175.8 L395.12,175.8 L395.12,171.8 L377.44,171.8 L377.44,188.4 L380.52,188.4 C381.293333,187.626667 382.166667,187.033333 383.14,186.62 C384.113333,186.206667 385.146667,186 386.24,186 C387.866667,186 389.153333,186.46 390.1,187.38 C391.046667,188.3 391.52,189.546667 391.52,191.12 C391.52,192.746667 391.053333,194 390.12,194.88 C389.186667,195.76 387.84,196.2 386.08,196.2 C383.413333,196.2 380.8,195.226667 378.24,193.28 L378.24,193.28 L376.52,197.04 C377.64,198.026667 379.06,198.82 380.78,199.42 C382.5,200.02 384.24,200.32 386,200.32 Z M410,200.36 C413.333333,200.36 415.88,199.12 417.64,196.64 C419.4,194.16 420.28,190.573333 420.28,185.88 C420.28,181.213333 419.4,177.653333 417.64,175.2 C415.88,172.746667 413.333333,171.52 410,171.52 C406.666667,171.52 404.12,172.746667 402.36,175.2 C400.6,177.653333 399.72,181.213333 399.72,185.88 C399.72,190.6 400.6,194.193333 402.36,196.66 C404.12,199.126667 406.666667,200.36 410,200.36 Z M410,196.32 C408.186667,196.32 406.866667,195.486667 406.04,193.82 C405.213333,192.153333 404.8,189.506667 404.8,185.88 C404.8,182.28 405.213333,179.66 406.04,178.02 C406.866667,176.38 408.186667,175.56 410,175.56 C411.813333,175.56 413.133333,176.38 413.96,178.02 C414.786667,179.66 415.2,182.28 415.2,185.88 C415.2,189.506667 414.786667,192.153333 413.96,193.82 C413.133333,195.486667 411.813333,196.32 410,196.32 Z" id="50" fill="#10162F" fill-rule="nonzero"></path>
        <path d="M947.48,628.32 C950.573333,628.32 953.02,627.606667 954.82,626.18 C956.62,624.753333 957.52,622.813333 957.52,620.36 C957.52,618.6 957.073333,617.126667 956.18,615.94 C955.286667,614.753333 954.013333,613.946667 952.36,613.52 C953.746667,613.013333 954.833333,612.18 955.62,611.02 C956.406667,609.86 956.813333,608.493333 956.84,606.92 C956.84,604.626667 956.013333,602.806667 954.36,601.46 C952.706667,600.113333 950.493333,599.44 947.72,599.44 C945.906667,599.44 944.126667,599.733333 942.38,600.32 C940.633333,600.906667 939.2,601.706667 938.08,602.72 L938.08,602.72 L939.8,606.48 C941.026667,605.52 942.286667,604.793333 943.58,604.3 C944.873333,603.806667 946.146667,603.56 947.4,603.56 C948.84,603.56 949.953333,603.906667 950.74,604.6 C951.526667,605.293333 951.92,606.28 951.92,607.56 C951.92,610.306667 950.093333,611.68 946.44,611.68 L946.44,611.68 L943.4,611.68 L943.4,615.76 L947.12,615.76 C948.986667,615.76 950.366667,616.1 951.26,616.78 C952.153333,617.46 952.6,618.506667 952.6,619.92 C952.6,621.36 952.16,622.433333 951.28,623.14 C950.4,623.846667 949.066667,624.2 947.28,624.2 C944.48,624.2 941.853333,623.226667 939.4,621.28 L939.4,621.28 L937.68,625.04 C938.826667,626.053333 940.273333,626.853333 942.02,627.44 C943.766667,628.026667 945.586667,628.32 947.48,628.32 Z M972,628.36 C975.333333,628.36 977.88,627.12 979.64,624.64 C981.4,622.16 982.28,618.573333 982.28,613.88 C982.28,609.213333 981.4,605.653333 979.64,603.2 C977.88,600.746667 975.333333,599.52 972,599.52 C968.666667,599.52 966.12,600.746667 964.36,603.2 C962.6,605.653333 961.72,609.213333 961.72,613.88 C961.72,618.6 962.6,622.193333 964.36,624.66 C966.12,627.126667 968.666667,628.36 972,628.36 Z M972,624.32 C970.186667,624.32 968.866667,623.486667 968.04,621.82 C967.213333,620.153333 966.8,617.506667 966.8,613.88 C966.8,610.28 967.213333,607.66 968.04,606.02 C968.866667,604.38 970.186667,603.56 972,603.56 C973.813333,603.56 975.133333,604.38 975.96,606.02 C976.786667,607.66 977.2,610.28 977.2,613.88 C977.2,617.506667 976.786667,620.153333 975.96,621.82 C975.133333,623.486667 973.813333,624.32 972,624.32 Z" id="30" fill="#10162F" fill-rule="nonzero"></path>
        <path d="M392.96,628 L392.96,622.48 L396.92,622.48 L396.92,618.48 L392.96,618.48 L392.96,599.8 L388.8,599.8 L375.68,618.68 L375.68,622.48 L387.92,622.48 L387.92,628 L392.96,628 Z M387.92,618.48 L380.48,618.48 L387.92,607.72 L387.92,618.48 Z M410,628.36 C413.333333,628.36 415.88,627.12 417.64,624.64 C419.4,622.16 420.28,618.573333 420.28,613.88 C420.28,609.213333 419.4,605.653333 417.64,603.2 C415.88,600.746667 413.333333,599.52 410,599.52 C406.666667,599.52 404.12,600.746667 402.36,603.2 C400.6,605.653333 399.72,609.213333 399.72,613.88 C399.72,618.6 400.6,622.193333 402.36,624.66 C404.12,627.126667 406.666667,628.36 410,628.36 Z M410,624.32 C408.186667,624.32 406.866667,623.486667 406.04,621.82 C405.213333,620.153333 404.8,617.506667 404.8,613.88 C404.8,610.28 405.213333,607.66 406.04,606.02 C406.866667,604.38 408.186667,603.56 410,603.56 C411.813333,603.56 413.133333,604.38 413.96,606.02 C414.786667,607.66 415.2,610.28 415.2,613.88 C415.2,617.506667 414.786667,620.153333 413.96,621.82 C413.133333,623.486667 411.813333,624.32 410,624.32 Z" id="40" fill="#10162F" fill-rule="nonzero"></path>
        <path d="M347.953585,404.32 C349.366918,404.32 350.626918,404.013333 351.733585,403.4 C352.840252,402.786667 353.686918,401.933333 354.273585,400.84 L354.273585,400.84 L354.273585,404 L359.233585,404 L359.233585,375.8 L354.233585,375.8 L354.233585,387.32 C353.646918,386.253333 352.806918,385.426667 351.713585,384.84 C350.620252,384.253333 349.366918,383.96 347.953585,383.96 C346.246918,383.96 344.740252,384.373333 343.433585,385.2 C342.126918,386.026667 341.106918,387.2 340.373585,388.72 C339.640252,390.24 339.273585,392.013333 339.273585,394.04 C339.273585,396.066667 339.640252,397.86 340.373585,399.42 C341.106918,400.98 342.133585,402.186667 343.453585,403.04 C344.773585,403.893333 346.273585,404.32 347.953585,404.32 Z M349.273585,400.44 C347.700252,400.44 346.473585,399.88 345.593585,398.76 C344.713585,397.64 344.273585,396.066667 344.273585,394.04 C344.273585,392.04 344.713585,390.506667 345.593585,389.44 C346.473585,388.373333 347.713585,387.84 349.313585,387.84 C350.886918,387.84 352.106918,388.38 352.973585,389.46 C353.840252,390.54 354.273585,392.093333 354.273585,394.12 C354.273585,396.146667 353.840252,397.706667 352.973585,398.8 C352.106918,399.893333 350.873585,400.44 349.273585,400.44 Z" id="d" fill="#E91C11" fill-rule="nonzero"></path>
        <path d="M823.593585,404.32 C825.273585,404.32 826.773585,403.893333 828.093585,403.04 C829.413585,402.186667 830.440252,400.98 831.173585,399.42 C831.906918,397.86 832.273585,396.066667 832.273585,394.04 C832.273585,392.013333 831.906918,390.24 831.173585,388.72 C830.440252,387.2 829.420252,386.026667 828.113585,385.2 C826.806918,384.373333 825.300252,383.96 823.593585,383.96 C822.206918,383.96 820.966918,384.246667 819.873585,384.82 C818.780252,385.393333 817.940252,386.213333 817.353585,387.28 L817.353585,387.28 L817.353585,375.8 L812.353585,375.8 L812.353585,404 L817.273585,404 L817.273585,400.84 C817.860252,401.933333 818.706918,402.786667 819.813585,403.4 C820.920252,404.013333 822.180252,404.32 823.593585,404.32 Z M822.273585,400.44 C820.673585,400.44 819.440252,399.893333 818.573585,398.8 C817.706918,397.706667 817.273585,396.146667 817.273585,394.12 C817.273585,392.093333 817.706918,390.54 818.573585,389.46 C819.440252,388.38 820.673585,387.84 822.273585,387.84 C823.873585,387.84 825.106918,388.373333 825.973585,389.44 C826.840252,390.506667 827.273585,392.04 827.273585,394.04 C827.273585,396.066667 826.833585,397.64 825.953585,398.76 C825.073585,399.88 823.846918,400.44 822.273585,400.44 Z" id="b" fill="#E91C11" fill-rule="nonzero"></path>
        <path d="M601.533585,524.32 C602.973585,524.32 604.360252,524.1 605.693585,523.66 C607.026918,523.22 608.120252,522.613333 608.973585,521.84 L608.973585,521.84 L607.533585,518.36 C606.706918,519.026667 605.833585,519.533333 604.913585,519.88 C603.993585,520.226667 603.080252,520.4 602.173585,520.4 C600.440252,520.4 599.093585,519.86 598.133585,518.78 C597.173585,517.7 596.693585,516.16 596.693585,514.16 C596.693585,512.133333 597.173585,510.58 598.133585,509.5 C599.093585,508.42 600.440252,507.88 602.173585,507.88 C603.080252,507.88 603.993585,508.053333 604.913585,508.4 C605.833585,508.746667 606.706918,509.253333 607.533585,509.92 L607.533585,509.92 L608.973585,506.4 C608.173585,505.653333 607.113585,505.06 605.793585,504.62 C604.473585,504.18 603.120252,503.96 601.733585,503.96 C599.706918,503.96 597.920252,504.386667 596.373585,505.24 C594.826918,506.093333 593.633585,507.3 592.793585,508.86 C591.953585,510.42 591.533585,512.213333 591.533585,514.24 C591.533585,516.266667 591.933585,518.04 592.733585,519.56 C593.533585,521.08 594.686918,522.253333 596.193585,523.08 C597.700252,523.906667 599.480252,524.32 601.533585,524.32 Z" id="c" fill="#E91C11" fill-rule="nonzero"></path>
        <polygon id="Line-Copy-2" fill="#10162F" fill-rule="nonzero" points="171.246952 560.49695 171.25305 550.496952 1001.25305 551.00305 1001.24695 561.003048"></polygon>
        <polygon id="Line-Copy" fill="#10162F" fill-rule="nonzero" points="871.5 154.5 871.5 645.5 861.5 645.5 861.5 154.5"></polygon>
        <path d="M220.48,484.32 C223.573333,484.32 226.02,483.606667 227.82,482.18 C229.62,480.753333 230.52,478.813333 230.52,476.36 C230.52,474.6 230.073333,473.126667 229.18,471.94 C228.286667,470.753333 227.013333,469.946667 225.36,469.52 C226.746667,469.013333 227.833333,468.18 228.62,467.02 C229.406667,465.86 229.813333,464.493333 229.84,462.92 C229.84,460.626667 229.013333,458.806667 227.36,457.46 C225.706667,456.113333 223.493333,455.44 220.72,455.44 C218.906667,455.44 217.126667,455.733333 215.38,456.32 C213.633333,456.906667 212.2,457.706667 211.08,458.72 L211.08,458.72 L212.8,462.48 C214.026667,461.52 215.286667,460.793333 216.58,460.3 C217.873333,459.806667 219.146667,459.56 220.4,459.56 C221.84,459.56 222.953333,459.906667 223.74,460.6 C224.526667,461.293333 224.92,462.28 224.92,463.56 C224.92,466.306667 223.093333,467.68 219.44,467.68 L219.44,467.68 L216.4,467.68 L216.4,471.76 L220.12,471.76 C221.986667,471.76 223.366667,472.1 224.26,472.78 C225.153333,473.46 225.6,474.506667 225.6,475.92 C225.6,477.36 225.16,478.433333 224.28,479.14 C223.4,479.846667 222.066667,480.2 220.28,480.2 C217.48,480.2 214.853333,479.226667 212.4,477.28 L212.4,477.28 L210.68,481.04 C211.826667,482.053333 213.273333,482.853333 215.02,483.44 C216.766667,484.026667 218.586667,484.32 220.48,484.32 Z M245,484.32 C247.106667,484.32 248.94,483.933333 250.5,483.16 C252.06,482.386667 253.266667,481.293333 254.12,479.88 C254.973333,478.466667 255.4,476.826667 255.4,474.96 C255.4,473.2 255.033333,471.64 254.3,470.28 C253.566667,468.92 252.526667,467.86 251.18,467.1 C249.833333,466.34 248.28,465.96 246.52,465.96 C244.52,465.96 242.84,466.44 241.48,467.4 L241.48,467.4 L241.48,459.8 L254.12,459.8 L254.12,455.8 L236.44,455.8 L236.44,472.4 L239.52,472.4 C240.293333,471.626667 241.166667,471.033333 242.14,470.62 C243.113333,470.206667 244.146667,470 245.24,470 C246.866667,470 248.153333,470.46 249.1,471.38 C250.046667,472.3 250.52,473.546667 250.52,475.12 C250.52,476.746667 250.053333,478 249.12,478.88 C248.186667,479.76 246.84,480.2 245.08,480.2 C242.413333,480.2 239.8,479.226667 237.24,477.28 L237.24,477.28 L235.52,481.04 C236.64,482.026667 238.06,482.82 239.78,483.42 C241.5,484.02 243.24,484.32 245,484.32 Z" id="35" fill="#10162F" fill-rule="nonzero"></path>
        <path d="M928.92,484.36 C930.733333,484.36 932.36,483.96 933.8,483.16 C935.24,482.36 936.36,481.246667 937.16,479.82 C937.96,478.393333 938.36,476.773333 938.36,474.96 C938.36,473.2 937.993333,471.633333 937.26,470.26 C936.526667,468.886667 935.506667,467.82 934.2,467.06 C932.893333,466.3 931.413333,465.92 929.76,465.92 C928.24,465.92 926.866667,466.26 925.64,466.94 C924.413333,467.62 923.493333,468.56 922.88,469.76 C922.933333,466.453333 923.533333,463.926667 924.68,462.18 C925.826667,460.433333 927.426667,459.56 929.48,459.56 C931.773333,459.56 934.16,460.533333 936.64,462.48 L936.64,462.48 L938.36,458.72 C937.186667,457.68 935.8,456.873333 934.2,456.3 C932.6,455.726667 930.96,455.44 929.28,455.44 C926.906667,455.44 924.853333,456.033333 923.12,457.22 C921.386667,458.406667 920.06,460.126667 919.14,462.38 C918.22,464.633333 917.76,467.306667 917.76,470.4 C917.76,474.88 918.726667,478.326667 920.66,480.74 C922.593333,483.153333 925.346667,484.36 928.92,484.36 Z M928.68,480.28 C927.186667,480.28 925.98,479.806667 925.06,478.86 C924.14,477.913333 923.68,476.666667 923.68,475.12 C923.68,473.6 924.14,472.366667 925.06,471.42 C925.98,470.473333 927.173333,470 928.64,470 C930.106667,470 931.28,470.466667 932.16,471.4 C933.04,472.333333 933.48,473.573333 933.48,475.12 C933.48,476.693333 933.046667,477.946667 932.18,478.88 C931.313333,479.813333 930.146667,480.28 928.68,480.28 Z M952,484.36 C955.333333,484.36 957.88,483.12 959.64,480.64 C961.4,478.16 962.28,474.573333 962.28,469.88 C962.28,465.213333 961.4,461.653333 959.64,459.2 C957.88,456.746667 955.333333,455.52 952,455.52 C948.666667,455.52 946.12,456.746667 944.36,459.2 C942.6,461.653333 941.72,465.213333 941.72,469.88 C941.72,474.6 942.6,478.193333 944.36,480.66 C946.12,483.126667 948.666667,484.36 952,484.36 Z M952,480.32 C950.186667,480.32 948.866667,479.486667 948.04,477.82 C947.213333,476.153333 946.8,473.506667 946.8,469.88 C946.8,466.28 947.213333,463.66 948.04,462.02 C948.866667,460.38 950.186667,459.56 952,459.56 C953.813333,459.56 955.133333,460.38 955.96,462.02 C956.786667,463.66 957.2,466.28 957.2,469.88 C957.2,473.506667 956.786667,476.153333 955.96,477.82 C955.133333,479.486667 953.813333,480.32 952,480.32 Z" id="60" fill="#10162F" fill-rule="nonzero"></path>
        <polygon id="Line-2" fill="#10162F" fill-rule="nonzero" points="245 271 264 280.5 245 290 245 282 200 282 200 279 245 279"></polygon>
        <polygon id="Line-2-Copy-4" fill="#10162F" fill-rule="nonzero" points="347.5 153 357 172 348.999 172 349 217 346 217 345.999 172 338 172"></polygon>
        <polygon id="Line-2-Copy-5" fill="#10162F" fill-rule="nonzero" points="347.5 581 357 600 348.999 600 349 645 346 645 345.999 600 338 600"></polygon>
        <polygon id="Line-2-Copy-6" fill="#10162F" fill-rule="nonzero" points="910 580 909.999 625 918 625 908.5 644 899 625 906.999 625 907 580"></polygon>
        <polygon id="Line-2-Copy-7" fill="#10162F" fill-rule="nonzero" points="910 152 909.999 197 918 197 908.5 216 899 197 906.999 197 907 152"></polygon>
        <polygon id="Line-2-Copy-2" fill="#10162F" fill-rule="nonzero" points="952 271 971 280.5 952 290 952 282 907 282 907 279 952 279"></polygon>
        <polygon id="Line-2-Copy" fill="#10162F" fill-rule="nonzero" points="220 506 220 514 265 514 265 517 220 517 220 525 201 515.5"></polygon>
        <polygon id="Line-2-Copy-3" fill="#10162F" fill-rule="nonzero" points="927 506 927 514 972 514 972 517 927 517 927 525 908 515.5"></polygon>
    </g>
</svg>